<svg xmlns="http://www.w3.org/2000/svg" width="20" height="20" viewBox="0 0 20 20">
  <g fill="none" fill-rule="evenodd" transform="translate(-2 -2)">
    <path fill="#FFF" d="M12,2 C6.47714286,2 2,6.14549383 2,11.2592593 C2,14.1731481 3.45416149,16.772284 5.72670807,18.4695679 L5.72670807,22 L9.13161491,20.1312963 C10.0403106,20.3827778 11.0029814,20.5185185 12,20.5185185 C17.5228571,20.5185185 22,16.3730247 22,11.2592593 C22,6.14549383 17.5228571,2 12,2 L12,2 Z M12.9937888,14.4691358 L10.447205,11.7530864 L5.47826087,14.4691358 L10.9440994,8.66666667 L13.552795,11.382716 L18.4596273,8.66666667 L12.9937888,14.4691358 L12.9937888,14.4691358 Z"/>
    <rect width="24" height="24"/>
  </g>
</svg>
