<svg xmlns="http://www.w3.org/2000/svg" width="19" height="19" viewBox="0 0 19 19">
  <g fill="none" fill-rule="evenodd" transform="translate(-2 -3)">
    <path fill="#FFF" d="M12.6877425,3.0681591 C13.7361354,3.19861455 14.5833884,3.45035191 15.5129181,3.90227479 C16.42718,4.34817578 17.0123348,4.7697641 17.7864152,5.53718881 C18.5117515,6.26206635 18.9140878,6.81112731 19.3407396,7.66342122 C19.935055,8.85243425 20.2733229,10.2658329 20.3311711,11.8218996 C20.3525461,12.3526135 20.3373348,12.4709689 20.2153616,12.6225854 C19.9837991,12.9168699 19.474814,12.8683008 19.3010997,12.5377162 C19.2462485,12.4285343 19.2309806,12.3345478 19.2127158,11.9098079 C19.18218,11.2576995 19.1365461,10.8361112 19.0451086,10.3325802 C18.6854658,8.35802049 17.7346175,6.78079277 16.2168794,5.64940975 C14.9521354,4.70307312 13.6446979,4.24197672 11.9319836,4.1419121 C11.352936,4.10853847 11.2523378,4.08732117 11.1213169,3.98725655 C10.8774836,3.796132 10.8653259,3.34724821 11.0999419,3.13800173 C11.2431771,3.00749 11.3437753,2.98931179 11.8405461,3.0045072 C12.0995908,3.01356817 12.4804955,3.04390272 12.6877425,3.06821538 L12.6877425,3.0681591 Z M5.72090623,3.39576098 C5.82761159,3.43217369 5.99216516,3.51709918 6.08665623,3.57776827 C6.66570385,3.9599048 8.27787647,6.01336807 8.80512647,7.03860829 C9.10680802,7.62396942 9.20740623,8.05771408 9.11297171,8.37923779 C9.01537052,8.72501788 8.85392706,8.90702518 8.13158778,9.48636442 C7.84206397,9.71992356 7.57080504,9.95950459 7.52822468,10.0232128 C7.41846575,10.1809637 7.33002528,10.4903311 7.33002528,10.7086948 C7.3331354,11.2152086 7.66224254,12.1342498 8.09505802,12.8410054 C8.43021575,13.3900101 9.03063837,14.0936703 9.6248973,14.633614 C10.322808,15.2705833 10.9384419,15.7042717 11.6332991,16.047069 C12.5262425,16.4898746 13.071814,16.6021518 13.4710402,16.4171054 C13.5715818,16.3716317 13.6782306,16.3109626 13.7118199,16.2837235 C13.7422425,16.2563717 13.9769152,15.9712607 14.2329628,15.6558152 C14.7266235,15.0370241 14.8393794,14.9369595 15.1777038,14.8216995 C15.6074658,14.6761049 16.0462753,14.7155004 16.4881384,14.9399423 C16.8234092,15.1128886 17.5548527,15.5648115 18.0271949,15.8923571 C18.6488794,16.3261018 19.9776354,17.4059329 20.1575134,17.6213139 C20.4744628,18.0095286 20.529314,18.5069251 20.3159598,19.0559861 C20.0904479,19.6352691 19.2127158,20.7211784 18.6001354,21.1852576 C18.0454598,21.6038631 17.6523973,21.7645406 17.1342515,21.7888532 C16.7075997,21.8100705 16.5308884,21.7736578 15.9853169,21.5492159 C11.7064717,19.79302 8.29009075,17.1723738 5.57767111,13.5720174 C4.16058778,11.6914441 3.08165921,9.74114086 2.34410861,7.71801215 C1.9144598,6.53811637 1.89314135,6.0255244 2.24662052,5.42192877 C2.39901635,5.16715233 3.04818302,4.53626124 3.52052528,4.18440298 C4.30681992,3.60202466 4.66951635,3.38664373 4.95904016,3.32603091 C5.15712647,3.28354003 5.50144492,3.31691366 5.72090623,3.39581726 L5.72090623,3.39576098 Z M12.8980431,5.26721694 C14.7479985,5.53713253 16.1803497,6.39252179 17.1190402,7.78172033 C17.6462902,8.56428417 17.9753973,9.48332533 18.0881533,10.4690575 C18.1277366,10.830033 18.1277366,11.4882758 18.0851562,11.5974577 C18.0454598,11.7005614 17.9174925,11.8400778 17.8077336,11.8977078 C17.6889271,11.9583769 17.4359896,11.9522988 17.295808,11.8794733 C17.0611354,11.7612305 16.9910163,11.573145 16.9910163,11.0635921 C16.9910163,10.2779892 16.7868229,9.4499517 16.4333437,8.80690428 C16.0310074,8.07290949 15.4459092,7.46627479 14.7327872,7.04463018 C14.1202068,6.68067187 13.2150491,6.41070001 12.3891146,6.34395274 C12.09043,6.31975264 11.9258765,6.25908354 11.8131205,6.1286281 C11.6394062,5.93148167 11.6210848,5.66454889 11.7673735,5.44314607 C11.9258765,5.1974306 12.1696533,5.15803508 12.8980431,5.26721694 Z M13.5472098,7.55722216 C14.1475759,7.68463852 14.6078169,7.9121195 15.000936,8.27917317 C15.506811,8.75529615 15.7841771,9.33159631 15.9060372,10.1596901 C15.9883705,10.6995775 15.9548378,10.9119194 15.7628021,11.0878485 C15.5829806,11.2516213 15.2508765,11.2576995 15.04968,11.1030439 C14.9033913,10.9938058 14.8577009,10.8785458 14.8241681,10.5661393 C14.7845848,10.1505729 14.7114122,9.85943998 14.5864985,9.58946812 C14.3182366,9.01620704 13.8458943,8.71893972 13.0474419,8.6218579 C12.6725312,8.57638422 12.5597753,8.53389334 12.4378586,8.39139412 C12.2154003,8.12744415 12.3007306,7.69983393 12.6085193,7.54208302 C12.7243854,7.48445301 12.7731294,7.47837484 13.0291205,7.49357025 C13.1875669,7.50263122 13.4222961,7.52992669 13.5472098,7.55722216 L13.5472098,7.55722216 Z"/>
    <rect width="24" height="24"/>
  </g>
</svg>
