<svg xmlns="http://www.w3.org/2000/svg" width="20" height="18" viewBox="0 0 20 18">
  <g fill="none" fill-rule="evenodd" transform="translate(-1 -4)">
    <g transform="translate(1 4)">
      <path fill="#FFFFFE" d="M16.8028477,16.9575685 C16.8028477,16.9575685 16.3613245,18.0873003 15.1472185,17.5450074 L7.86245033,11.8282906 L5.21344371,10.5178397 L0.754304636,8.98125258 C0.754304636,8.98125258 0.0699337748,8.73274683 0.00370860927,8.19052166 C-0.0625165563,7.64822871 0.776357616,7.3544415 0.776357616,7.3544415 L18.502649,0.236846449 C18.502649,0.236846449 19.9596026,-0.418379016 19.9596026,0.666206897 L16.8028477,16.9575685 Z"/>
      <path fill="#E6E6E6" d="M7.30251656,16.7746124 C7.30251656,16.7746124 7.08980132,16.7542087 6.82490066,15.8954878 C6.56,15.0369024 5.21344371,10.5178397 5.21344371,10.5178397 L15.9198675,3.5583908 C15.9198675,3.5583908 16.537947,3.17431182 16.515894,3.5583908 C16.515894,3.5583908 16.6262914,3.62617742 16.2951656,3.94253758 C15.9640397,4.25889773 7.88450331,11.6927174 7.88450331,11.6927174"/>
      <path fill="#CDCDCD" d="M10.6556291,14.0202387 L7.77417219,16.7093339 C7.77417219,16.7093339 7.54887417,16.8842234 7.30251656,16.7746124 L7.85423841,11.7796876"/>
    </g>
    <rect width="24" height="24"/>
  </g>
</svg>
