<?xml version="1.0" encoding="UTF-8" standalone="no"?>
<svg width="83px" height="30px" viewBox="0 0 83 30" version="1.1" xmlns="http://www.w3.org/2000/svg" xmlns:xlink="http://www.w3.org/1999/xlink">
    <title>Logo</title>
    <desc>Created with Sketch.</desc>
    <defs></defs>
    <g id="Page-1" stroke="none" stroke-width="1" fill-rule="evenodd">
        <g id="Header" transform="translate(-20.000000, -20.000000)">
            <g id="Logo" transform="translate(20.000000, 20.000000)">
                <path d="M16.1184,2.47375 C13.6820727,0.83125 10.9622182,0.51375 8.142,1.02125 C4.40094545,1.695 2.05369091,3.98 0.984818182,7.57125 C0.0752727273,10.63 0.0790363636,13.7375 0.702545455,16.84625 C1.09270909,18.77625 1.88056364,20.53125 3.27436364,21.9675 C4.94667273,23.6875 7.04929091,24.445 9.39027273,24.6325 C9.65247273,24.655 9.79549091,24.74375 9.92470909,24.9625 C10.833,26.47625 12.0411273,27.71625 13.5227455,28.68 C14.6844545,29.43375 15.9201818,29.9875 17.3466,29.96 C18.1507636,29.93875 18.7592182,29.44625 18.8758909,28.74125 C19.0088727,27.935 18.5873455,27.22125 17.8070182,26.945 C17.5812,26.86375 17.3440909,26.81125 17.1157636,26.74125 C15.6956182,26.30125 14.6016545,25.46375 13.8777818,24.1225 C13.9605818,24.07875 14.007,24.0475 14.0559273,24.03375 C16.6114364,23.14 18.3452182,21.37875 19.2811091,18.88625 C20.6435455,15.255 20.6435455,11.5375 19.7013818,7.8175 C19.1506364,5.6325 18.0303273,3.7675 16.1184,2.47375 L16.1184,2.47375 Z M15.8800364,17.29625 C15.3154909,19.1575 14.1989455,20.60125 12.2355818,21.14 C10.1668364,21.70875 8.18214545,21.53625 6.48474545,20.0775 C5.39078182,19.1425 4.81996364,17.88125 4.54772727,16.51125 C4.30434545,15.27125 4.08730909,12.74125 4.12118182,12.73375 C4.15505455,10.9125 4.30936364,9.1125 5.05958182,7.41125 C6.21501818,4.81125 8.50205455,3.915 11.0149091,4.145 C13.7761636,4.39875 15.3368182,6.06 16.0067455,8.59625 C16.7695091,11.49125 16.7569636,14.41875 15.8800364,17.29625 L15.8800364,17.29625 Z" id="Fill-1"></path>
                <path d="M64.6392,21.77125 C63.7346727,21.34625 63.1713818,20.66875 63.0584727,19.665 C63.0145636,19.29375 63.0032727,18.91875 62.9995091,18.545 C62.9832,16.11125 63.0032727,13.67625 62.9568545,11.245 C62.9154545,9.11625 61.7361818,7.62 59.6912727,6.99 C58.1406545,6.5125 56.5498909,6.4875 54.9566182,6.6375 C53.7359455,6.75125 52.5315818,6.9675 51.4539273,7.5775 C51.0374182,7.81125 50.6133818,8.14 50.3574545,8.53375 C49.7477455,9.4625 50.3474182,10.6175 51.4125273,10.64 C51.6822545,10.64625 51.9670364,10.55875 52.2317455,10.4725 C52.7787273,10.30375 53.3094,10.07 53.8626545,9.92125 C55.2489273,9.55375 56.6552727,9.3775 58.0729091,9.7275 C58.7365636,9.89125 59.3048727,10.2675 59.4064909,10.96125 C59.5457455,11.88875 59.5495091,12.83375 59.6084727,13.74125 C59.0941091,13.74125 58.6939091,13.7475 58.2949636,13.74125 C56.3428909,13.71125 54.4096364,13.8275 52.5566727,14.52875 C51.3084,15 50.2458,15.72375 49.6097455,16.9325 C48.0503455,19.8875 49.4428909,23.245 52.6733455,24.24 C55.6177636,25.14625 58.3288364,24.6575 60.7225091,22.78375 C61.2293455,23.18 61.7073273,23.615 62.2417636,23.9525 C62.9593636,24.4075 63.7522364,24.63625 64.6178727,24.495 C65.4333273,24.35875 65.8812,23.68125 65.7055636,22.8825 C65.5750909,22.2875 65.1372545,22.0025 64.6392,21.77125 L64.6392,21.77125 Z M59.5332,20.54375 C58.0365273,21.675 56.3491636,22.0225 54.5238,21.6375 C53.3031273,21.3825 52.7222727,20.66625 52.6093636,19.445 C52.5014727,18.26875 53.0258727,17.355 54.1035273,16.86125 C55.1109273,16.4 56.1910909,16.30125 57.2787818,16.27375 C57.8897455,16.25875 58.5082364,16.30875 59.1229636,16.30125 C59.4742364,16.295 59.5896545,16.43375 59.5620545,16.7825 C59.5332,17.16625 59.5557818,17.555 59.5557818,17.94125 C59.5432364,17.945 59.6423455,19.4625 59.6875091,20.2225 C59.6937818,20.3275 59.6197636,20.47875 59.5332,20.54375 L59.5332,20.54375 Z" id="Fill-2"></path>
                <path d="M44.6655818,8.125 C43.1576182,6.845 41.3711455,6.45375 39.4491818,6.58875 C36.3278727,6.8075 34.1223818,8.36375 32.9832545,11.2675 C31.9106182,13.99625 31.9319455,16.8125 32.7561818,19.60125 C33.3734182,21.675 34.7057455,23.19625 36.7556727,23.96875 C37.6087636,24.28875 38.5333636,24.49125 39.4416545,24.5925 C41.5317273,24.8325 43.5653455,24.535 45.4622182,23.5925 C45.8799818,23.38625 46.2601091,23.0475 46.5674727,22.69375 C46.9651636,22.2325 46.9300364,21.54 46.5862909,21.05375 C46.2412909,20.5675 45.6792545,20.37375 45.057,20.555 C44.7634364,20.64125 44.4761455,20.76125 44.1963818,20.8875 C42.7473818,21.54 41.2519636,21.81625 39.6549273,21.6075 C37.3754182,21.3125 35.6516727,19.2325 35.8210364,16.88 L36.3278727,16.88 L44.7032182,16.88 C45.0532364,16.88 45.402,16.8875 45.7520182,16.87375 C46.5938182,16.84375 47.0642727,16.46875 47.1734182,15.64375 C47.3302364,14.4375 47.1608727,13.2425 46.8936545,12.06625 C46.5461455,10.5375 45.8900182,9.16125 44.6655818,8.125 L44.6655818,8.125 Z M35.811,14.17875 C35.9540182,12.71625 36.2827091,11.36875 37.3816909,10.325 C38.7265636,9.05125 41.3184545,8.995 42.5654727,10.235 C43.3458,11.00875 43.6054909,12.015 43.7660727,13.055 C43.8212727,13.42125 43.8388364,13.79 43.8777273,14.17875 L35.811,14.17875 L35.811,14.17875 Z" id="Fill-3"></path>
                <path d="M82.3621636,10.78375 C82.0384909,8.995 81.1427455,7.595 79.3449818,7.0075 C77.0504182,6.2625 74.7621273,6.33625 72.6055636,7.50375 C71.8202182,7.9275 71.1415091,8.5525 70.4063455,9.0875 C70.3875273,9.04125 70.3536545,8.9125 70.2846545,8.805 C69.9371455,8.25625 69.6473455,7.65375 69.2107636,7.1825 C68.7352909,6.66875 68.0741455,6.6375 67.4192727,6.9025 C66.8321455,7.14625 66.4595455,7.59875 66.4658182,8.21375 C66.4708364,8.675 66.6188727,9.165 66.8170909,9.58625 C67.4506364,10.915 67.7341636,12.305 67.7216182,13.7725 C67.7040545,16.635 67.7166,19.49625 67.7166,22.35875 C67.7166,22.49375 67.7166,22.62625 67.7178545,22.76125 C67.7592545,23.95625 68.6700545,24.6725 69.8405455,24.42625 C70.7613818,24.23625 71.1904364,23.635 71.1904364,22.4975 C71.1904364,19.09875 71.1778909,15.70125 71.1904364,12.305 C71.1904364,12.06625 71.3020909,11.78125 71.4564,11.59625 C72.5992909,10.245 74.0721273,9.56125 75.8460545,9.4975 C77.7354,9.4325 78.8782909,10.46375 79.0024909,12.35625 C79.0137818,12.58375 79.0263273,12.8125 79.0263273,13.0375 L79.0263273,22.54625 C79.0263273,23.25375 79.1906727,23.87625 79.8643636,24.245 C81.1239273,24.93375 82.5327818,24.1125 82.5327818,22.6875 C82.5352909,19.37 82.5453273,16.05625 82.5265091,12.7375 C82.5227455,12.08625 82.4763273,11.4275 82.3621636,10.78375" id="Fill-4"></path>
                <path d="M30.3324,21.3525 C30.015,21.34 29.6900727,21.3675 29.3764364,21.42 C28.1545091,21.61375 27.3917455,21.1 27.1734545,19.89625 C27.117,19.5825 27.0931636,19.25875 27.0931636,18.93875 C27.0843818,16.1725 27.0881455,13.40625 27.0881455,10.64 L27.0881455,9.5925 C27.0881455,7.04125 27.0894,4.4875 27.0868909,1.9325 C27.0843818,1.0175 26.7268364,0.4375 26.0230364,0.17875 C24.7572,-0.2925 23.6205818,0.48 23.6205818,1.82125 C23.6193273,7.5825 23.6168182,13.345 23.6230909,19.10875 C23.6256,19.6125 23.6456727,20.1275 23.7222,20.6225 C23.9467636,22.09375 24.5502,23.33375 25.9678364,24.0175 C27.1182545,24.57125 28.3376727,24.6425 29.5784182,24.43625 C30.1818545,24.335 30.7526727,24.14625 31.1817273,23.67875 C31.5831818,23.23875 31.6308545,22.71875 31.4502,22.18 C31.2745636,21.66 30.8793818,21.3775 30.3324,21.3525" id="Fill-5"></path>
            </g>
        </g>
    </g>
</svg>
