<svg width="25" height="25" viewBox="0 0 25 25" fill="none" xmlns="http://www.w3.org/2000/svg">
<g id="Instagram">
<path id="Fill 1" fill-rule="evenodd" clip-rule="evenodd" d="M22.2291 17.3035C22.2291 19.8361 20.176 21.8892 17.6435 21.8892H7.28916C4.75659 21.8892 2.70349 19.8361 2.70349 17.3035V6.94926C2.70349 4.41663 4.75659 2.36353 7.28916 2.36353H17.6435C20.176 2.36353 22.2291 4.41663 22.2291 6.94926V17.3035ZM17.5257 0.100098H7.40819C3.59292 0.100098 0.5 3.19296 0.5 7.00822V17.1257C0.5 20.941 3.59292 24.0339 7.40819 24.0339H17.5257C21.341 24.0339 24.4339 20.941 24.4339 17.1257V7.00822C24.4339 3.19296 21.341 0.100098 17.5257 0.100098Z" fill="#595959"/>
<path id="Fill 4" fill-rule="evenodd" clip-rule="evenodd" d="M12.4677 16.1521C10.2444 16.1521 8.44202 14.3497 8.44202 12.1264C8.44202 9.90317 10.2444 8.10083 12.4677 8.10083C14.6909 8.10083 16.4932 9.90317 16.4932 12.1264C16.4932 14.3497 14.6909 16.1521 12.4677 16.1521ZM12.4681 5.91638C9.03838 5.91638 6.25806 8.69671 6.25806 12.1264C6.25806 15.5561 9.03838 18.3364 12.4681 18.3364C15.8978 18.3364 18.6781 15.5561 18.6781 12.1264C18.6781 8.69671 15.8978 5.91638 12.4681 5.91638Z" fill="#595959"/>
<path id="Fill 6" fill-rule="evenodd" clip-rule="evenodd" d="M18.8852 4.23352C18.0862 4.23352 17.4385 4.88119 17.4385 5.68021C17.4385 6.47923 18.0862 7.12696 18.8852 7.12696C19.6842 7.12696 20.3319 6.47923 20.3319 5.68021C20.3319 4.88119 19.6842 4.23352 18.8852 4.23352Z" fill="#595959"/>
</g>
</svg>
