<svg width="21" height="17" viewBox="0 0 21 17" fill="none" xmlns="http://www.w3.org/2000/svg">
<path fill-rule="evenodd" clip-rule="evenodd" d="M19.0206 2.00917L16.451 15.2704C16.451 15.2704 16.0916 16.19 15.1033 15.7485L9.1735 11.0951L7.0172 10.0284L3.38746 8.77763C3.38746 8.77763 2.83038 8.57535 2.77647 8.13398C2.72256 7.69255 3.40541 7.45341 3.40541 7.45341L17.8346 1.65967C17.8346 1.65967 19.0206 1.12632 19.0206 2.00917Z" fill="#D9D9D9"/>
<path fill-rule="evenodd" clip-rule="evenodd" d="M8.71931 15.1212C8.71931 15.1212 8.54616 15.1046 8.33053 14.4056C8.1149 13.7067 7.0188 10.0282 7.0188 10.0282L15.7338 4.36319C15.7338 4.36319 16.237 4.05055 16.219 4.36319C16.219 4.36319 16.3089 4.41837 16.0393 4.67589C15.7698 4.93341 9.19304 10.9845 9.19304 10.9845" fill="#A6A6A6"/>
<path fill-rule="evenodd" clip-rule="evenodd" d="M11.4482 12.8785L9.10268 15.0674C9.10268 15.0674 8.91929 15.2098 8.71875 15.1206L9.16785 11.0547" fill="#CDCDCD"/>
</svg>
