<svg width="16" height="17" viewBox="0 0 16 17" fill="none" xmlns="http://www.w3.org/2000/svg">
<path fill-rule="evenodd" clip-rule="evenodd" d="M9.00085 0.520224C9.88273 0.62996 10.5954 0.841714 11.3773 1.22186C12.1464 1.59694 12.6386 1.95157 13.2897 2.5971C13.8998 3.20685 14.2383 3.6687 14.5972 4.38563C15.0971 5.38579 15.3816 6.5747 15.4303 7.88362C15.4483 8.33004 15.4355 8.4296 15.3329 8.55714C15.1381 8.80468 14.7099 8.76382 14.5638 8.48575C14.5177 8.3939 14.5048 8.31485 14.4895 7.95757C14.4638 7.40903 14.4254 7.0544 14.3485 6.63085C14.046 4.9699 13.2461 3.64319 11.9695 2.6915C10.9056 1.89547 9.80581 1.50761 8.36512 1.42343C7.87805 1.39536 7.79343 1.37751 7.68321 1.29334C7.47811 1.13257 7.46788 0.754986 7.66523 0.578974C7.78572 0.469191 7.87034 0.4539 8.28821 0.466682C8.50611 0.474304 8.82652 0.49982 9.00085 0.520271V0.520224ZM3.14164 0.795111C3.2314 0.82574 3.36981 0.897177 3.4493 0.94821C3.93638 1.26965 5.29249 2.99697 5.736 3.85937C5.98976 4.35176 6.07438 4.71661 5.99495 4.98707C5.91285 5.27793 5.77705 5.43103 5.16944 5.91835C4.9259 6.11482 4.69772 6.31634 4.6619 6.36993C4.56958 6.50263 4.49518 6.76286 4.49518 6.94654C4.4978 7.37261 4.77464 8.14568 5.13871 8.74018C5.42063 9.20199 5.92569 9.79389 6.42557 10.2481C7.01263 10.7839 7.53048 11.1487 8.11497 11.437C8.86609 11.8095 9.32501 11.9039 9.66083 11.7483C9.7454 11.71 9.83511 11.659 9.86337 11.6361C9.88896 11.6131 10.0864 11.3733 10.3017 11.1079C10.717 10.5874 10.8118 10.5032 11.0964 10.4063C11.4579 10.2838 11.827 10.317 12.1987 10.5057C12.4807 10.6512 13.096 11.0314 13.4933 11.3069C14.0163 11.6717 15.134 12.5801 15.2853 12.7612C15.5519 13.0878 15.5981 13.5062 15.4186 13.968C15.2289 14.4553 14.4906 15.3688 13.9753 15.7591C13.5087 16.1112 13.1781 16.2464 12.7422 16.2669C12.3833 16.2847 12.2347 16.2541 11.7758 16.0653C8.17653 14.588 5.30276 12.3836 3.02115 9.35509C1.82914 7.7732 0.92158 6.13266 0.301173 4.43086C-0.0602352 3.43837 -0.0781677 3.00719 0.219169 2.49947C0.34736 2.28515 0.893421 1.75447 1.29074 1.45849C1.95215 0.968614 2.25724 0.787441 2.50078 0.736456C2.6674 0.700714 2.95703 0.728786 3.14164 0.795158V0.795111ZM9.17794 2.36946C10.7341 2.5965 11.9389 3.31603 12.7285 4.48459C13.172 5.14286 13.4489 5.91593 13.5437 6.7451C13.577 7.04874 13.577 7.60244 13.5412 7.69428C13.5078 7.781 13.4002 7.89836 13.3078 7.94684C13.2079 7.99787 12.9951 7.99276 12.8772 7.9315C12.6798 7.83204 12.6208 7.67383 12.6208 7.2452C12.6208 6.58438 12.4491 5.88786 12.1517 5.34694C11.8133 4.72953 11.3211 4.21924 10.7213 3.86457C10.206 3.55842 9.44459 3.33132 8.74984 3.27518C8.4986 3.25482 8.36018 3.20379 8.26533 3.09405C8.11921 2.92822 8.1038 2.70368 8.22685 2.51745C8.36018 2.31076 8.56524 2.27762 9.17794 2.36946ZM9.72576 4.29586C10.2308 4.40304 10.6179 4.59439 10.9486 4.90314C11.3741 5.30364 11.6074 5.78841 11.7099 6.48498C11.7792 6.93912 11.751 7.11773 11.5895 7.26572C11.4382 7.40348 11.1588 7.40859 10.9896 7.2785C10.8665 7.18661 10.8281 7.08966 10.7999 6.82687C10.7666 6.47731 10.7051 6.23242 10.6 6.00532C10.3743 5.52311 9.97701 5.27306 9.30537 5.1914C8.99001 5.15315 8.89516 5.1174 8.79261 4.99754C8.60548 4.77551 8.67726 4.41582 8.93616 4.28312C9.03362 4.23465 9.07463 4.22953 9.28996 4.24231C9.42324 4.24994 9.62069 4.2729 9.72576 4.29586Z" fill="#595959"/>
</svg>
