<svg width="24" height="14" viewBox="0 0 24 14" fill="none" xmlns="http://www.w3.org/2000/svg">
<path fill-rule="evenodd" clip-rule="evenodd" d="M11.7532 12.9788H13.128C13.128 12.9788 13.5431 12.9335 13.7554 12.7072C13.9505 12.4992 13.9443 12.1089 13.9443 12.1089C13.9443 12.1089 13.9174 10.2813 14.7734 10.0122C15.6175 9.74693 16.7013 11.7785 17.8499 12.5597C18.7185 13.1507 19.3786 13.0213 19.3786 13.0213L22.4502 12.9788C22.4502 12.9788 24.0568 12.8806 23.295 11.629C23.2326 11.5268 22.8511 10.7032 21.0111 9.01103C19.085 7.23995 19.3432 7.52649 21.6632 4.46295C23.076 2.59726 23.6408 1.45832 23.4643 0.970531C23.2962 0.505774 22.2569 0.628543 22.2569 0.628543L18.7986 0.649727C18.7986 0.649727 18.542 0.615142 18.352 0.727801C18.1662 0.837973 18.0469 1.09539 18.0469 1.09539C18.0469 1.09539 17.4993 2.53901 16.7696 3.76694C15.2296 6.35761 14.6137 6.49475 14.362 6.33362C13.7764 5.95865 13.9227 4.82757 13.9227 4.02379C13.9227 1.51304 14.3071 0.466215 13.1742 0.19524C12.7983 0.105369 12.5214 0.0459105 11.56 0.0362013C10.3259 0.0237639 9.28173 0.0399726 8.69034 0.326996C8.29689 0.51789 7.99334 0.943169 8.17832 0.967643C8.40695 0.997813 8.92448 1.10606 9.19888 1.47597C9.55338 1.95381 9.54098 3.02647 9.54098 3.02647C9.54098 3.02647 9.74468 5.982 9.06541 6.34903C8.59931 6.60082 7.95981 6.0868 6.58685 3.73637C5.88353 2.53243 5.35231 1.20147 5.35231 1.20147C5.35231 1.20147 5.25002 0.952798 5.06731 0.819678C4.84572 0.658393 4.53609 0.607279 4.53609 0.607279L1.24966 0.628543C1.24966 0.628543 0.756423 0.642184 0.575166 0.854743C0.413913 1.04395 0.562288 1.43481 0.562288 1.43481C0.562288 1.43481 3.13503 7.3985 6.04843 10.4039C8.72006 13.1597 11.7532 12.9788 11.7532 12.9788Z" fill="#595959"/>
</svg>
