<svg width="62" height="22" viewBox="0 0 62 22" fill="none" xmlns="http://www.w3.org/2000/svg">
<path d="M5.93532 0.165264C-0.392519 1.29782 -0.392518 8.53357 0.303544 12.12C1.44256 17.7198 6.25171 17.9715 6.8845 17.9715C7.07433 17.9715 7.20089 18.0344 7.26417 18.2232C8.52974 20.2995 10.871 22.0613 12.8327 21.9984C14.2248 21.9354 14.4146 20.1737 13.1491 19.7333C12.6428 19.5445 11.1242 19.2928 10.175 17.594C10.2383 17.5311 10.3015 17.5311 10.3015 17.5311C12.1999 16.839 13.5287 15.5176 14.2248 13.6301C15.2372 10.8616 15.2372 8.09313 14.5412 5.26175C13.4022 0.354022 8.97269 -0.401012 5.93532 0.165264ZM11.7569 12.4346C10.5546 16.3985 6.31499 15.9581 4.66975 14.5109C2.2019 12.4346 2.7714 6.89766 3.59402 4.94715C4.47992 2.99665 6.18844 2.36745 8.08679 2.49329C13.4655 2.99665 12.1999 10.9245 11.7569 12.4346ZM49.0279 15.9581C49.4076 16.1468 49.724 16.3356 49.8505 16.776C49.9771 17.4052 49.6607 17.9086 49.0279 17.9715C48.3951 18.0974 47.7624 17.9086 47.2561 17.5311C46.8765 17.2794 46.4968 16.9648 46.1171 16.6502C44.282 18.0344 42.2571 18.412 40.0424 17.7198C36.4988 16.6502 36.1824 11.8054 39.9791 10.3582C41.7509 9.66613 43.4594 9.79196 45.2945 9.79196C45.2312 9.09985 45.2312 8.40773 45.1679 7.71562C45.1047 7.21226 44.6617 6.89766 44.1555 6.77182C43.0798 6.52014 42.004 6.64598 40.9916 6.89766C40.3588 7.08642 39.5994 7.46394 39.1565 7.46394C38.3339 7.46394 37.8909 6.58306 38.3339 5.89095C38.3971 5.82803 38.9667 4.69548 41.8142 4.4438C46.8132 3.94044 47.8256 6.26847 47.8256 7.90438C47.8889 9.72904 47.8256 11.5537 47.8889 13.4413C47.8889 13.693 47.8889 14.0076 47.9522 14.2593C47.8889 15.1401 48.3319 15.6435 49.0279 15.9581ZM45.1679 15.0143C45.2312 14.9514 45.2945 14.8255 45.2945 14.7626C45.2312 13.9447 45.1679 12.7492 45.2312 12.1829C45.2312 11.9312 45.1679 11.8054 44.9148 11.8054C43.9656 11.8054 42.447 11.6166 41.1181 12.2458C40.2955 12.6233 39.9158 13.3155 39.9791 14.1963C40.1689 16.5244 43.3961 16.3356 45.1679 15.0143ZM27.3234 12.2458C27.1969 14.0076 28.5257 15.5806 30.2342 15.8322C31.4365 16.021 32.5755 15.7693 33.6513 15.266C33.8411 15.203 34.0942 15.0772 34.2841 15.0143C35.3598 14.6997 35.9926 15.9581 35.4231 16.6502C35.17 16.9019 34.9168 17.1536 34.6004 17.3423C31.8795 18.7265 29.1585 18.0344 28.0195 17.6569C24.0329 16.1468 24.1595 10.7358 25.172 8.09313C26.8172 3.87752 31.6896 3.75168 33.9677 5.63927C35.7395 7.14934 36.0559 9.98072 35.866 11.302C35.8027 11.9312 35.4231 12.1829 34.7903 12.2458H27.3234ZM27.3234 10.2324H33.3982C33.3982 9.9178 33.3349 9.66612 33.3349 9.41445C33.2083 8.65941 33.0185 7.84146 32.449 7.27518C31.4998 6.33139 29.5382 6.3943 28.5257 7.3381C27.6398 8.09313 27.3867 9.09985 27.3234 10.2324ZM61.8734 7.71562C61.9367 8.21897 62 8.72233 62 9.16277C62 11.6796 62 14.1963 62 16.6502C62 17.7198 60.9243 18.349 59.9751 17.8457C59.4689 17.594 59.3423 17.0906 59.3423 16.5873V9.41445C59.3423 9.22569 59.3423 9.09985 59.3423 8.91109C59.279 7.46394 58.3931 6.7089 56.9377 6.77182C55.6089 6.83474 54.4699 7.3381 53.6473 8.34481C53.5207 8.47065 53.4574 8.72233 53.4574 8.84817C53.4574 11.4279 53.4574 14.0076 53.4574 16.5244C53.4574 17.4052 53.141 17.8457 52.445 17.9715C51.5591 18.1603 50.863 17.594 50.863 16.7131C50.863 16.6502 50.863 12.0571 50.863 9.9178C50.863 7.40102 49.9138 6.83474 49.9138 5.70219C49.9138 4.69548 51.3692 4.25504 52.002 4.94715C52.3184 5.26175 52.7613 6.07971 52.8879 6.3943C53.4574 6.01679 53.9636 5.51343 54.5331 5.19883C56.1784 4.31796 57.8869 4.25504 59.5954 4.82131C60.9243 5.26175 61.6203 6.33139 61.8734 7.71562ZM20.4894 14.2593C20.4894 15.1401 20.7425 16.3985 22.1979 16.1468C23.0205 16.021 23.5267 16.1468 23.7798 16.7131C24.0329 17.594 23.4002 18.2232 22.3244 18.4119C17.6418 19.167 17.8317 14.8255 17.8317 14.3851C17.8317 10.0436 17.8317 5.70219 17.8317 1.36074C17.8317 -0.463932 20.4261 -0.463932 20.4261 1.42366L20.4894 14.2593Z" fill="#222222"/>
</svg>
