<svg width="50" height="50" viewBox="0 0 50 50" fill="none" xmlns="http://www.w3.org/2000/svg">
<path d="M25 3.75C25 1.67893 23.3118 -0.0287937 21.264 0.280716C17.6468 0.827423 14.1778 2.16393 11.1107 4.21326C6.99952 6.9603 3.7952 10.8648 1.90301 15.4329C0.0108188 20.0011 -0.484264 25.0277 0.48037 29.8773C1.445 34.7268 3.82602 39.1814 7.32233 42.6777C10.8186 46.174 15.2732 48.555 20.1227 49.5196C24.9723 50.4843 29.9989 49.9892 34.5671 48.097C39.1352 46.2048 43.0397 43.0005 45.7867 38.8892C47.8361 35.8222 49.1726 32.3532 49.7193 28.736C50.0288 26.6882 48.3211 25 46.25 25C44.1789 25 42.5402 26.6977 42.0997 28.7214C41.6358 30.8531 40.775 32.8903 39.5507 34.7225C37.6278 37.6003 34.8947 39.8434 31.697 41.1679C28.4993 42.4924 24.9806 42.839 21.5859 42.1637C18.1913 41.4885 15.0731 39.8218 12.6256 37.3744C10.1782 34.927 8.5115 31.8088 7.83626 28.4141C7.16101 25.0194 7.50757 21.5007 8.83211 18.303C10.1566 15.1053 12.3997 12.3722 15.2775 10.4493C17.1097 9.22503 19.1469 8.36419 21.2786 7.90026C23.3023 7.45983 25 5.82107 25 3.75Z" fill="url(#paint0_angular)"/>
<defs>
<radialGradient id="paint0_angular" cx="0" cy="0" r="1" gradientUnits="userSpaceOnUse" gradientTransform="translate(25 25) rotate(-90) scale(25)">
<stop offset="0.894331" stop-color="white" stop-opacity="0"/>
<stop offset="0.999804" stop-color="#20A052"/>
</radialGradient>
</defs>
</svg>
