<svg width="24" height="24" viewBox="0 0 24 24" xmlns="http://www.w3.org/2000/svg">
<path d="M7 5C7 4.44772 7.44772 4 8 4H18C18.5523 4 19 4.44772 19 5V19C19 19.5523 18.5523 20 18 20H8C7.44772 20 7 19.5523 7 19C7 18.4477 7.44772 18 8 18H17V6H8C7.44772 6 7 5.55228 7 5Z"/>
<path d="M10.7929 15.1569C10.4024 14.7664 10.4024 14.1332 10.7929 13.7427L11.5356 13H7C6.44772 13 6 12.5523 6 12C6 11.4477 6.44772 11 7 11H11.5858L10.7929 10.2071C10.4024 9.81654 10.4024 9.18337 10.7929 8.79285C11.1834 8.40233 11.8166 8.40235 12.2071 8.79288L14.6113 11.1971C15.0408 11.6267 15.0408 12.3232 14.6113 12.7527L12.2071 15.1569C11.8166 15.5474 11.1834 15.5474 10.7929 15.1569Z"/>
</svg>