<svg xmlns="http://www.w3.org/2000/svg" width="23" height="25" viewBox="0 0 23 25">
  <path fill="#FFF" fill-rule="nonzero" d="M20.49 2.163c1.99 1.67 3.006 5.652 2.27 11.493-.714 5.662-4.958 6.02-5.74 6.266-2.393.57-4.86.773-7.318.604 0 0-2.89 3.416-3.798 4.303-.103.117-.257.18-.416.17-.193-.04-.193-.105-.193-.483v-4.66C-.37 18.316-.04 12.542.027 9.522c.068-3.02.648-5.5 2.368-7.17C5.507-.386 11.897.02 11.897.02 17.3.05 19.89 1.59 20.49 2.164zm-5.84 7.464l-.008-.047c.095-.005.184-.046.247-.115.063-.07.095-.16.09-.253.04-.666-.207-1.317-.683-1.795-.477-.478-1.138-.737-1.82-.715-.2 0-.363.158-.363.354 0 .195.162.354.363.354.512-.032 1.012.16 1.363.525.352.366.518.865.454 1.362.01.185.167.33.357.33zm1.848.604c.096.006.19-.027.262-.09.07-.065.112-.154.114-.25.07-1.275-.386-2.525-1.266-3.47-.953-.963-2.254-1.522-3.624-1.558-.198-.013-.37.133-.382.325-.014.193.136.36.333.373 1.186.02 2.316.5 3.142 1.33.754.813 1.14 1.888 1.073 2.982-.003.093.032.183.097.25.066.067.156.107.25.11zm1.894.728l-.03-.038c.098 0 .19-.038.257-.106.067-.067.103-.158.1-.253.087-2.054-.696-4.053-2.164-5.528-1.413-1.344-3.316-2.08-5.288-2.048-.2 0-.362.16-.362.354 0 .195.162.354.362.354 1.806-.034 3.55.647 4.833 1.887 1.333 1.34 2.033 3.163 1.934 5.03 0 .09.038.18.105.245.066.066.157.103.252.103zm-5.828 3.038c-2.16-.666-3.852-2.312-4.543-4.416-.026-.285.08-.566.29-.764l.668-.52c.42-.372.505-.984.203-1.452-.258-.445-.538-.876-.84-1.293-.28-.386-.967-1.198-.967-1.198-.326-.39-.9-.48-1.334-.207-.51.29-.97.655-1.364 1.085-.285.306-.473.686-.54 1.095-.007.053-.007.107 0 .16-.002.16.024.32.076.472.368 1.052.848 2.064 1.43 3.02.5.89 1.075 1.74 1.72 2.538.323.4.67.78 1.036 1.14.37.36.76.697 1.17 1.01.814.618 1.68 1.168 2.59 1.643.978.57 2.015 1.037 3.093 1.396.156.05.32.077.484.076h.164c.418-.067.808-.25 1.12-.528.442-.384.817-.833 1.113-1.33.28-.425.188-.985-.212-1.303 0 0-.82-.652-1.227-.945-.426-.295-.868-.57-1.323-.82-.482-.293-1.11-.206-1.49.207l-.53.65c-.204.206-.492.31-.783.284z"/>
</svg>