<svg width="24" height="24" viewBox="0 0 24 24" fill="none" xmlns="http://www.w3.org/2000/svg">
<path fill-rule="evenodd" clip-rule="evenodd" d="M12 23C18.0754 23 23 18.0754 23 12C23 5.92465 18.0754 1 12 1C5.92465 1 1 5.92465 1 12C1 18.0754 5.92465 23 12 23Z" fill="#00AA64"/>
<path fill-rule="evenodd" clip-rule="evenodd" d="M6.16023 11.6679C6.55076 11.2774 7.18392 11.2774 7.57445 11.6679L10.4029 14.4963L16.7668 8.13236C17.1574 7.74183 17.7905 7.74184 18.181 8.13236C18.5716 8.52288 18.5716 9.15605 18.181 9.54657L10.4029 17.3247L6.16023 13.0821C5.76971 12.6916 5.76971 12.0584 6.16023 11.6679Z" fill="white"/>
</svg>
