<svg width="355" height="231" viewBox="0 0 355 231" fill="none" xmlns="http://www.w3.org/2000/svg">
<path d="M100 52.2326L341.191 10L355 87.7674L113.809 130L100 52.2326Z" fill="#00AA63"/>
<path d="M111.635 0L115 130L0 67.8957L111.635 0Z" fill="#222222"/>
<ellipse cx="192.5" cy="186" rx="137.5" ry="5" fill="#222222"/>
<ellipse cx="196" cy="123.5" rx="14" ry="25.5" fill="white"/>
<ellipse cx="291" cy="127" rx="14" ry="29" fill="white"/>
<path d="M66.1118 170.436L65.8971 170.781L66.1911 171.062C76.1957 180.612 89.8248 185.3 103.136 185.3C126.797 185.3 143.386 169.041 143.386 146.55C143.386 136.764 140.123 127.816 133.602 121.315C127.079 114.811 117.343 110.8 104.486 110.8C103.478 110.8 101.802 110.954 100.239 111.161C99.0105 111.323 97.7959 111.526 97.017 111.728C97.0495 111.55 97.0857 111.346 97.1233 111.12C97.256 110.324 97.4086 109.257 97.4851 108.186L97.4851 108.186L97.4855 108.18L98.057 98.75H134.786H135.286V98.25V75.75V75.25H134.786H74.7864H74.3236L74.2879 75.7113L69.9379 131.811L69.9088 132.186L70.2603 132.318L84.2103 137.568L84.4147 137.645L84.61 137.547C89.0524 135.326 93.9263 134 98.7864 134C103.583 134 107.744 135.218 110.693 137.425C113.628 139.622 115.386 142.814 115.386 146.85C115.386 151.106 113.483 154.264 110.726 156.372C107.957 158.49 104.317 159.55 100.886 159.55C92.9558 159.55 84.6724 154.982 79.4794 150.086L79.0347 149.667L78.7119 150.186L66.1118 170.436ZM195.991 185.3C211.38 185.3 221.632 178.993 228.009 168.771C234.363 158.586 236.841 144.563 236.841 129.15C236.841 113.737 234.363 99.8252 228.008 89.7519C221.629 79.641 211.376 73.45 195.991 73.45C180.606 73.45 170.353 79.641 163.974 89.7519C157.619 99.8252 155.141 113.737 155.141 129.15C155.141 144.563 157.619 158.586 163.973 168.771C170.35 178.993 180.602 185.3 195.991 185.3ZM195.991 160.3C193.53 160.3 191.522 159.467 189.877 157.954C188.221 156.432 186.912 154.203 185.906 151.388C183.892 145.753 183.141 137.911 183.141 129.15C183.141 120.464 183.892 112.736 185.905 107.196C186.91 104.429 188.218 102.242 189.874 100.749C191.518 99.267 193.527 98.45 195.991 98.45C198.455 98.45 200.464 99.267 202.109 100.749C203.764 102.242 205.072 104.429 206.077 107.196C208.09 112.736 208.841 120.464 208.841 129.15C208.841 137.911 208.09 145.753 206.076 151.388C205.071 154.203 203.762 156.432 202.105 157.954C200.46 159.467 198.452 160.3 195.991 160.3ZM291.352 185.3C306.741 185.3 316.993 178.993 323.37 168.771C329.724 158.586 332.202 144.563 332.202 129.15C332.202 113.737 329.724 99.8252 323.369 89.7519C316.99 79.641 306.738 73.45 291.352 73.45C275.967 73.45 265.715 79.641 259.336 89.7519C252.981 99.8252 250.502 113.737 250.502 129.15C250.502 144.563 252.981 158.586 259.334 168.771C265.711 178.993 275.963 185.3 291.352 185.3ZM291.352 160.3C288.891 160.3 286.884 159.467 285.238 157.954C283.582 156.432 282.273 154.203 281.267 151.388C279.253 145.753 278.502 137.911 278.502 129.15C278.502 120.464 279.253 112.736 281.266 107.196C282.271 104.429 283.579 102.242 285.235 100.749C286.879 99.267 288.888 98.45 291.352 98.45C293.817 98.45 295.825 99.267 297.47 100.749C299.125 102.242 300.433 104.429 301.439 107.196C303.452 112.736 304.202 120.464 304.202 129.15C304.202 137.911 303.452 145.753 301.438 151.388C300.432 154.203 299.123 156.432 297.466 157.954C295.821 159.467 293.814 160.3 291.352 160.3Z" fill="white" stroke="#222222"/>
<mask id="mask0" mask-type="alpha" maskUnits="userSpaceOnUse" x="278" y="98" width="26" height="62">
<path d="M278.5 129.5L279 118L279.5 114L281 107L284 102L289 98.5H294L298.5 101.5L301.5 107.5L302.5 110.5L304 119.5V127V137L303 146L301 153L297.5 158.5L294 160H288.5L286 158.5L282.5 154.5L281 150.5L280 146L278.5 129.5Z" fill="#C4C4C4"/>
</mask>
<g mask="url(#mask0)">
<rect x="-175" y="395.107" width="1000" height="1" transform="rotate(-45 -175 395.107)" fill="#222222"/>
<rect x="-171.464" y="398.642" width="1000" height="1" transform="rotate(-45 -171.464 398.642)" fill="#222222"/>
<rect x="-167.929" y="402.178" width="1000" height="1" transform="rotate(-45 -167.929 402.178)" fill="#222222"/>
<rect x="-164.393" y="405.713" width="1000" height="1" transform="rotate(-45 -164.393 405.713)" fill="#222222"/>
<rect x="-160.858" y="409.249" width="1000" height="1" transform="rotate(-45 -160.858 409.249)" fill="#222222"/>
<rect x="-157.322" y="412.784" width="1000" height="1" transform="rotate(-45 -157.322 412.784)" fill="#222222"/>
<rect x="-153.787" y="416.32" width="1000" height="1" transform="rotate(-45 -153.787 416.32)" fill="#222222"/>
<rect x="-150.251" y="419.855" width="1000" height="1" transform="rotate(-45 -150.251 419.855)" fill="#222222"/>
<rect x="-146.716" y="423.391" width="1000" height="1" transform="rotate(-45 -146.716 423.391)" fill="#222222"/>
<rect x="-143.18" y="426.927" width="1000" height="1" transform="rotate(-45 -143.18 426.927)" fill="#222222"/>
<rect x="-139.645" y="430.462" width="1000" height="1" transform="rotate(-45 -139.645 430.462)" fill="#222222"/>
<rect x="-136.109" y="433.998" width="1000" height="1" transform="rotate(-45 -136.109 433.998)" fill="#222222"/>
<rect x="-132.574" y="437.533" width="1000" height="1" transform="rotate(-45 -132.574 437.533)" fill="#222222"/>
<rect x="-129.038" y="441.069" width="1000" height="1" transform="rotate(-45 -129.038 441.069)" fill="#222222"/>
<rect x="-125.502" y="444.604" width="1000" height="1" transform="rotate(-45 -125.502 444.604)" fill="#222222"/>
<rect x="-121.967" y="448.14" width="1000" height="1" transform="rotate(-45 -121.967 448.14)" fill="#222222"/>
<rect x="-117.724" y="452.382" width="1000" height="1" transform="rotate(-45 -117.724 452.382)" fill="#222222"/>
<rect x="-114.189" y="455.918" width="1000" height="1" transform="rotate(-45 -114.189 455.918)" fill="#222222"/>
<rect x="-110.653" y="459.453" width="1000" height="1" transform="rotate(-45 -110.653 459.453)" fill="#222222"/>
<rect x="-107.118" y="462.989" width="1000" height="1" transform="rotate(-45 -107.118 462.989)" fill="#222222"/>
<rect x="-103.582" y="466.525" width="1000" height="1" transform="rotate(-45 -103.582 466.525)" fill="#222222"/>
<rect x="-100.047" y="470.06" width="1000" height="1" transform="rotate(-45 -100.047 470.06)" fill="#222222"/>
<rect x="-96.5111" y="473.596" width="1000" height="1" transform="rotate(-45 -96.5111 473.596)" fill="#222222"/>
<rect x="-92.9756" y="477.131" width="1000" height="1" transform="rotate(-45 -92.9756 477.131)" fill="#222222"/>
<rect x="-89.4401" y="480.667" width="1000" height="1" transform="rotate(-45 -89.4401 480.667)" fill="#222222"/>
<rect x="-85.9045" y="484.202" width="1000" height="1" transform="rotate(-45 -85.9045 484.202)" fill="#222222"/>
<rect x="-82.369" y="487.738" width="1000" height="1" transform="rotate(-45 -82.369 487.738)" fill="#222222"/>
<rect x="-78.8335" y="491.273" width="1000" height="1" transform="rotate(-45 -78.8335 491.273)" fill="#222222"/>
<rect x="-75.298" y="494.809" width="1000" height="1" transform="rotate(-45 -75.298 494.809)" fill="#222222"/>
<rect x="-71.7625" y="498.344" width="1000" height="1" transform="rotate(-45 -71.7625 498.344)" fill="#222222"/>
<rect x="-68.2268" y="501.88" width="1000" height="1" transform="rotate(-45 -68.2268 501.88)" fill="#222222"/>
<rect x="-64.6913" y="505.415" width="1000" height="1" transform="rotate(-45 -64.6913 505.415)" fill="#222222"/>
<rect x="-61.1558" y="508.951" width="1000" height="1" transform="rotate(-45 -61.1558 508.951)" fill="#222222"/>
<rect x="-57.6202" y="512.486" width="1000" height="1" transform="rotate(-45 -57.6202 512.486)" fill="#222222"/>
<rect x="-54.0847" y="516.022" width="1000" height="1" transform="rotate(-45 -54.0847 516.022)" fill="#222222"/>
<rect x="-50.5492" y="519.558" width="1000" height="1" transform="rotate(-45 -50.5492 519.558)" fill="#222222"/>
<rect x="-47.0137" y="523.093" width="1000" height="1" transform="rotate(-45 -47.0137 523.093)" fill="#222222"/>
<rect x="-43.4781" y="526.629" width="1000" height="1" transform="rotate(-45 -43.4781 526.629)" fill="#222222"/>
<rect x="-39.9425" y="530.164" width="1000" height="1" transform="rotate(-45 -39.9425 530.164)" fill="#222222"/>
<rect x="-36.407" y="533.7" width="1000" height="1" transform="rotate(-45 -36.407 533.7)" fill="#222222"/>
<rect x="-32.8715" y="537.235" width="1000" height="1" transform="rotate(-45 -32.8715 537.235)" fill="#222222"/>
<rect x="-29.3359" y="540.771" width="1000" height="1" transform="rotate(-45 -29.3359 540.771)" fill="#222222"/>
<rect x="-25.8004" y="544.306" width="1000" height="1" transform="rotate(-45 -25.8004 544.306)" fill="#222222"/>
<rect x="-22.2649" y="547.842" width="1000" height="1" transform="rotate(-45 -22.2649 547.842)" fill="#222222"/>
<rect x="-18.7294" y="551.377" width="1000" height="1" transform="rotate(-45 -18.7294 551.377)" fill="#222222"/>
<rect x="-15.1938" y="554.913" width="1000" height="1" transform="rotate(-45 -15.1938 554.913)" fill="#222222"/>
<rect x="-11.6582" y="558.448" width="1000" height="1" transform="rotate(-45 -11.6582 558.448)" fill="#222222"/>
<rect x="-8.12268" y="561.984" width="1000" height="1" transform="rotate(-45 -8.12268 561.984)" fill="#222222"/>
<rect x="-3.88013" y="566.227" width="1000" height="1" transform="rotate(-45 -3.88013 566.227)" fill="#222222"/>
<rect x="-0.344604" y="569.762" width="1000" height="1" transform="rotate(-45 -0.344604 569.762)" fill="#222222"/>
<rect x="3.19092" y="573.298" width="1000" height="1" transform="rotate(-45 3.19092 573.298)" fill="#222222"/>
<rect x="6.72644" y="576.833" width="1000" height="1" transform="rotate(-45 6.72644 576.833)" fill="#222222"/>
<rect x="10.262" y="580.369" width="1000" height="1" transform="rotate(-45 10.262 580.369)" fill="#222222"/>
<rect x="13.7975" y="583.904" width="1000" height="1" transform="rotate(-45 13.7975 583.904)" fill="#222222"/>
<rect x="17.3331" y="587.44" width="1000" height="1" transform="rotate(-45 17.3331 587.44)" fill="#222222"/>
<rect x="20.8687" y="590.975" width="1000" height="1" transform="rotate(-45 20.8687 590.975)" fill="#222222"/>
<rect x="24.4042" y="594.511" width="1000" height="1" transform="rotate(-45 24.4042 594.511)" fill="#222222"/>
<rect x="27.9397" y="598.046" width="1000" height="1" transform="rotate(-45 27.9397 598.046)" fill="#222222"/>
<rect x="31.4752" y="601.582" width="1000" height="1" transform="rotate(-45 31.4752 601.582)" fill="#222222"/>
<rect x="35.0107" y="605.117" width="1000" height="1" transform="rotate(-45 35.0107 605.117)" fill="#222222"/>
<rect x="38.5463" y="608.653" width="1000" height="1" transform="rotate(-45 38.5463 608.653)" fill="#222222"/>
<rect x="42.0818" y="612.188" width="1000" height="1" transform="rotate(-45 42.0818 612.188)" fill="#222222"/>
<rect x="45.6174" y="615.724" width="1000" height="1" transform="rotate(-45 45.6174 615.724)" fill="#222222"/>
<rect x="49.153" y="619.26" width="1000" height="1" transform="rotate(-45 49.153 619.26)" fill="#222222"/>
</g>
<mask id="mask1" mask-type="alpha" maskUnits="userSpaceOnUse" x="183" y="98" width="26" height="62">
<path d="M183 129.5L183.5 118L184 114L185.5 107L188.5 102L193.5 98.5H198.5L203 101.5L206 107.5L207 110.5L208.5 119.5V127V137L207.5 146L205.5 153L202 158.5L198.5 160H193L190.5 158.5L187 154.5L185.5 150.5L184.5 146L183 129.5Z" fill="#C4C4C4"/>
</mask>
<g mask="url(#mask1)">
<rect x="-270.5" y="395.107" width="1000" height="1" transform="rotate(-45 -270.5 395.107)" fill="#222222"/>
<rect x="-266.964" y="398.642" width="1000" height="1" transform="rotate(-45 -266.964 398.642)" fill="#222222"/>
<rect x="-263.429" y="402.178" width="1000" height="1" transform="rotate(-45 -263.429 402.178)" fill="#222222"/>
<rect x="-259.893" y="405.713" width="1000" height="1" transform="rotate(-45 -259.893 405.713)" fill="#222222"/>
<rect x="-256.358" y="409.249" width="1000" height="1" transform="rotate(-45 -256.358 409.249)" fill="#222222"/>
<rect x="-252.822" y="412.784" width="1000" height="1" transform="rotate(-45 -252.822 412.784)" fill="#222222"/>
<rect x="-249.287" y="416.32" width="1000" height="1" transform="rotate(-45 -249.287 416.32)" fill="#222222"/>
<rect x="-245.751" y="419.855" width="1000" height="1" transform="rotate(-45 -245.751 419.855)" fill="#222222"/>
<rect x="-242.216" y="423.391" width="1000" height="1" transform="rotate(-45 -242.216 423.391)" fill="#222222"/>
<rect x="-238.68" y="426.927" width="1000" height="1" transform="rotate(-45 -238.68 426.927)" fill="#222222"/>
<rect x="-235.145" y="430.462" width="1000" height="1" transform="rotate(-45 -235.145 430.462)" fill="#222222"/>
<rect x="-231.609" y="433.998" width="1000" height="1" transform="rotate(-45 -231.609 433.998)" fill="#222222"/>
<rect x="-228.074" y="437.533" width="1000" height="1" transform="rotate(-45 -228.074 437.533)" fill="#222222"/>
<rect x="-224.538" y="441.069" width="1000" height="1" transform="rotate(-45 -224.538 441.069)" fill="#222222"/>
<rect x="-221.002" y="444.604" width="1000" height="1" transform="rotate(-45 -221.002 444.604)" fill="#222222"/>
<rect x="-217.467" y="448.14" width="1000" height="1" transform="rotate(-45 -217.467 448.14)" fill="#222222"/>
<rect x="-213.224" y="452.382" width="1000" height="1" transform="rotate(-45 -213.224 452.382)" fill="#222222"/>
<rect x="-209.689" y="455.918" width="1000" height="1" transform="rotate(-45 -209.689 455.918)" fill="#222222"/>
<rect x="-206.153" y="459.453" width="1000" height="1" transform="rotate(-45 -206.153 459.453)" fill="#222222"/>
<rect x="-202.618" y="462.989" width="1000" height="1" transform="rotate(-45 -202.618 462.989)" fill="#222222"/>
<rect x="-199.082" y="466.525" width="1000" height="1" transform="rotate(-45 -199.082 466.525)" fill="#222222"/>
<rect x="-195.547" y="470.06" width="1000" height="1" transform="rotate(-45 -195.547 470.06)" fill="#222222"/>
<rect x="-192.011" y="473.596" width="1000" height="1" transform="rotate(-45 -192.011 473.596)" fill="#222222"/>
<rect x="-188.476" y="477.131" width="1000" height="1" transform="rotate(-45 -188.476 477.131)" fill="#222222"/>
<rect x="-184.94" y="480.667" width="1000" height="1" transform="rotate(-45 -184.94 480.667)" fill="#222222"/>
<rect x="-181.405" y="484.202" width="1000" height="1" transform="rotate(-45 -181.405 484.202)" fill="#222222"/>
<rect x="-177.869" y="487.738" width="1000" height="1" transform="rotate(-45 -177.869 487.738)" fill="#222222"/>
<rect x="-174.333" y="491.273" width="1000" height="1" transform="rotate(-45 -174.333 491.273)" fill="#222222"/>
<rect x="-170.798" y="494.809" width="1000" height="1" transform="rotate(-45 -170.798 494.809)" fill="#222222"/>
<rect x="-167.262" y="498.344" width="1000" height="1" transform="rotate(-45 -167.262 498.344)" fill="#222222"/>
<rect x="-163.727" y="501.88" width="1000" height="1" transform="rotate(-45 -163.727 501.88)" fill="#222222"/>
<rect x="-160.191" y="505.415" width="1000" height="1" transform="rotate(-45 -160.191 505.415)" fill="#222222"/>
<rect x="-156.656" y="508.951" width="1000" height="1" transform="rotate(-45 -156.656 508.951)" fill="#222222"/>
<rect x="-153.12" y="512.486" width="1000" height="1" transform="rotate(-45 -153.12 512.486)" fill="#222222"/>
<rect x="-149.585" y="516.022" width="1000" height="1" transform="rotate(-45 -149.585 516.022)" fill="#222222"/>
<rect x="-146.049" y="519.558" width="1000" height="1" transform="rotate(-45 -146.049 519.558)" fill="#222222"/>
<rect x="-142.514" y="523.093" width="1000" height="1" transform="rotate(-45 -142.514 523.093)" fill="#222222"/>
<rect x="-138.978" y="526.629" width="1000" height="1" transform="rotate(-45 -138.978 526.629)" fill="#222222"/>
<rect x="-135.443" y="530.164" width="1000" height="1" transform="rotate(-45 -135.443 530.164)" fill="#222222"/>
<rect x="-131.907" y="533.7" width="1000" height="1" transform="rotate(-45 -131.907 533.7)" fill="#222222"/>
<rect x="-128.371" y="537.235" width="1000" height="1" transform="rotate(-45 -128.371 537.235)" fill="#222222"/>
<rect x="-124.836" y="540.771" width="1000" height="1" transform="rotate(-45 -124.836 540.771)" fill="#222222"/>
<rect x="-121.3" y="544.306" width="1000" height="1" transform="rotate(-45 -121.3 544.306)" fill="#222222"/>
<rect x="-117.765" y="547.842" width="1000" height="1" transform="rotate(-45 -117.765 547.842)" fill="#222222"/>
<rect x="-114.229" y="551.377" width="1000" height="1" transform="rotate(-45 -114.229 551.377)" fill="#222222"/>
<rect x="-110.694" y="554.913" width="1000" height="1" transform="rotate(-45 -110.694 554.913)" fill="#222222"/>
<rect x="-107.158" y="558.448" width="1000" height="1" transform="rotate(-45 -107.158 558.448)" fill="#222222"/>
<rect x="-103.623" y="561.984" width="1000" height="1" transform="rotate(-45 -103.623 561.984)" fill="#222222"/>
<rect x="-99.3801" y="566.227" width="1000" height="1" transform="rotate(-45 -99.3801 566.227)" fill="#222222"/>
<rect x="-95.8446" y="569.762" width="1000" height="1" transform="rotate(-45 -95.8446 569.762)" fill="#222222"/>
<rect x="-92.3091" y="573.298" width="1000" height="1" transform="rotate(-45 -92.3091 573.298)" fill="#222222"/>
<rect x="-88.7736" y="576.833" width="1000" height="1" transform="rotate(-45 -88.7736 576.833)" fill="#222222"/>
<rect x="-85.238" y="580.369" width="1000" height="1" transform="rotate(-45 -85.238 580.369)" fill="#222222"/>
<rect x="-81.7025" y="583.904" width="1000" height="1" transform="rotate(-45 -81.7025 583.904)" fill="#222222"/>
<rect x="-78.1669" y="587.44" width="1000" height="1" transform="rotate(-45 -78.1669 587.44)" fill="#222222"/>
<rect x="-74.6313" y="590.975" width="1000" height="1" transform="rotate(-45 -74.6313 590.975)" fill="#222222"/>
<rect x="-71.0958" y="594.511" width="1000" height="1" transform="rotate(-45 -71.0958 594.511)" fill="#222222"/>
<rect x="-67.5603" y="598.046" width="1000" height="1" transform="rotate(-45 -67.5603 598.046)" fill="#222222"/>
<rect x="-64.0248" y="601.582" width="1000" height="1" transform="rotate(-45 -64.0248 601.582)" fill="#222222"/>
<rect x="-60.4893" y="605.117" width="1000" height="1" transform="rotate(-45 -60.4893 605.117)" fill="#222222"/>
<rect x="-56.9537" y="608.653" width="1000" height="1" transform="rotate(-45 -56.9537 608.653)" fill="#222222"/>
<rect x="-53.4182" y="612.188" width="1000" height="1" transform="rotate(-45 -53.4182 612.188)" fill="#222222"/>
<rect x="-49.8826" y="615.724" width="1000" height="1" transform="rotate(-45 -49.8826 615.724)" fill="#222222"/>
<rect x="-46.347" y="619.26" width="1000" height="1" transform="rotate(-45 -46.347 619.26)" fill="#222222"/>
</g>
<mask id="mask2" mask-type="alpha" maskUnits="userSpaceOnUse" x="65" y="74" width="79" height="112">
<path d="M66.1118 170.436L65.8971 170.781L66.1911 171.062C76.1957 180.612 89.8248 185.3 103.136 185.3C126.797 185.3 143.386 169.041 143.386 146.55C143.386 136.764 140.123 127.816 133.602 121.315C127.079 114.811 117.343 110.8 104.486 110.8C103.478 110.8 101.802 110.954 100.239 111.161C99.0105 111.323 97.7959 111.526 97.017 111.728C97.0495 111.55 97.0857 111.346 97.1233 111.12C97.256 110.324 97.4086 109.257 97.4851 108.186L97.4851 108.186L97.4855 108.18L98.057 98.75H134.786H135.286V98.25V75.75V75.25H134.786H74.7864H74.3236L74.2879 75.7113L69.9379 131.811L69.9088 132.186L70.2603 132.318L84.2103 137.568L84.4147 137.645L84.61 137.547C89.0524 135.326 93.9263 134 98.7864 134C103.583 134 107.744 135.218 110.693 137.425C113.628 139.622 115.386 142.814 115.386 146.85C115.386 151.106 113.483 154.264 110.726 156.372C107.957 158.49 104.317 159.55 100.886 159.55C92.9558 159.55 84.6724 154.982 79.4794 150.086L79.0347 149.667L78.7119 150.186L66.1118 170.436Z" fill="#C4C4C4" stroke="#222222"/>
</mask>
<g mask="url(#mask2)">
<rect x="-364" y="374" width="1000" height="1" transform="rotate(-45 -364 374)" fill="#222222"/>
<rect x="-360.464" y="377.536" width="1000" height="1" transform="rotate(-45 -360.464 377.536)" fill="#222222"/>
<rect x="-356.929" y="381.071" width="1000" height="1" transform="rotate(-45 -356.929 381.071)" fill="#222222"/>
<rect x="-353.393" y="384.607" width="1000" height="1" transform="rotate(-45 -353.393 384.607)" fill="#222222"/>
<rect x="-349.858" y="388.142" width="1000" height="1" transform="rotate(-45 -349.858 388.142)" fill="#222222"/>
<rect x="-346.322" y="391.678" width="1000" height="1" transform="rotate(-45 -346.322 391.678)" fill="#222222"/>
<rect x="-342.787" y="395.213" width="1000" height="1" transform="rotate(-45 -342.787 395.213)" fill="#222222"/>
<rect x="-339.251" y="398.749" width="1000" height="1" transform="rotate(-45 -339.251 398.749)" fill="#222222"/>
<rect x="-335.716" y="402.284" width="1000" height="1" transform="rotate(-45 -335.716 402.284)" fill="#222222"/>
<rect x="-332.18" y="405.82" width="1000" height="1" transform="rotate(-45 -332.18 405.82)" fill="#222222"/>
<rect x="-328.645" y="409.355" width="1000" height="1" transform="rotate(-45 -328.645 409.355)" fill="#222222"/>
<rect x="-325.109" y="412.891" width="1000" height="1" transform="rotate(-45 -325.109 412.891)" fill="#222222"/>
<rect x="-321.574" y="416.426" width="1000" height="1" transform="rotate(-45 -321.574 416.426)" fill="#222222"/>
<rect x="-318.038" y="419.962" width="1000" height="1" transform="rotate(-45 -318.038 419.962)" fill="#222222"/>
<rect x="-314.502" y="423.497" width="1000" height="1" transform="rotate(-45 -314.502 423.497)" fill="#222222"/>
<rect x="-310.967" y="427.033" width="1000" height="1" transform="rotate(-45 -310.967 427.033)" fill="#222222"/>
<rect x="-306.724" y="431.276" width="1000" height="1" transform="rotate(-45 -306.724 431.276)" fill="#222222"/>
<rect x="-303.189" y="434.811" width="1000" height="1" transform="rotate(-45 -303.189 434.811)" fill="#222222"/>
<rect x="-299.653" y="438.347" width="1000" height="1" transform="rotate(-45 -299.653 438.347)" fill="#222222"/>
<rect x="-296.118" y="441.882" width="1000" height="1" transform="rotate(-45 -296.118 441.882)" fill="#222222"/>
<rect x="-292.582" y="445.418" width="1000" height="1" transform="rotate(-45 -292.582 445.418)" fill="#222222"/>
<rect x="-289.047" y="448.953" width="1000" height="1" transform="rotate(-45 -289.047 448.953)" fill="#222222"/>
<rect x="-285.511" y="452.489" width="1000" height="1" transform="rotate(-45 -285.511 452.489)" fill="#222222"/>
<rect x="-281.976" y="456.024" width="1000" height="1" transform="rotate(-45 -281.976 456.024)" fill="#222222"/>
<rect x="-278.44" y="459.56" width="1000" height="1" transform="rotate(-45 -278.44 459.56)" fill="#222222"/>
<rect x="-274.905" y="463.095" width="1000" height="1" transform="rotate(-45 -274.905 463.095)" fill="#222222"/>
<rect x="-271.369" y="466.631" width="1000" height="1" transform="rotate(-45 -271.369 466.631)" fill="#222222"/>
<rect x="-267.833" y="470.167" width="1000" height="1" transform="rotate(-45 -267.833 470.167)" fill="#222222"/>
<rect x="-264.298" y="473.702" width="1000" height="1" transform="rotate(-45 -264.298 473.702)" fill="#222222"/>
<rect x="-260.762" y="477.238" width="1000" height="1" transform="rotate(-45 -260.762 477.238)" fill="#222222"/>
<rect x="-257.227" y="480.773" width="1000" height="1" transform="rotate(-45 -257.227 480.773)" fill="#222222"/>
<rect x="-253.691" y="484.309" width="1000" height="1" transform="rotate(-45 -253.691 484.309)" fill="#222222"/>
<rect x="-250.156" y="487.844" width="1000" height="1" transform="rotate(-45 -250.156 487.844)" fill="#222222"/>
<rect x="-246.62" y="491.38" width="1000" height="1" transform="rotate(-45 -246.62 491.38)" fill="#222222"/>
<rect x="-243.085" y="494.915" width="1000" height="1" transform="rotate(-45 -243.085 494.915)" fill="#222222"/>
<rect x="-239.549" y="498.451" width="1000" height="1" transform="rotate(-45 -239.549 498.451)" fill="#222222"/>
<rect x="-236.014" y="501.986" width="1000" height="1" transform="rotate(-45 -236.014 501.986)" fill="#222222"/>
<rect x="-232.478" y="505.522" width="1000" height="1" transform="rotate(-45 -232.478 505.522)" fill="#222222"/>
<rect x="-228.943" y="509.057" width="1000" height="1" transform="rotate(-45 -228.943 509.057)" fill="#222222"/>
<rect x="-225.407" y="512.593" width="1000" height="1" transform="rotate(-45 -225.407 512.593)" fill="#222222"/>
<rect x="-221.871" y="516.128" width="1000" height="1" transform="rotate(-45 -221.871 516.128)" fill="#222222"/>
<rect x="-218.336" y="519.664" width="1000" height="1" transform="rotate(-45 -218.336 519.664)" fill="#222222"/>
<rect x="-214.8" y="523.199" width="1000" height="1" transform="rotate(-45 -214.8 523.199)" fill="#222222"/>
<rect x="-211.265" y="526.735" width="1000" height="1" transform="rotate(-45 -211.265 526.735)" fill="#222222"/>
<rect x="-207.729" y="530.271" width="1000" height="1" transform="rotate(-45 -207.729 530.271)" fill="#222222"/>
<rect x="-204.194" y="533.806" width="1000" height="1" transform="rotate(-45 -204.194 533.806)" fill="#222222"/>
<rect x="-200.658" y="537.342" width="1000" height="1" transform="rotate(-45 -200.658 537.342)" fill="#222222"/>
<rect x="-197.123" y="540.877" width="1000" height="1" transform="rotate(-45 -197.123 540.877)" fill="#222222"/>
<rect x="-192.88" y="545.12" width="1000" height="1" transform="rotate(-45 -192.88 545.12)" fill="#222222"/>
<rect x="-189.345" y="548.655" width="1000" height="1" transform="rotate(-45 -189.345 548.655)" fill="#222222"/>
<rect x="-185.809" y="552.191" width="1000" height="1" transform="rotate(-45 -185.809 552.191)" fill="#222222"/>
<rect x="-182.274" y="555.726" width="1000" height="1" transform="rotate(-45 -182.274 555.726)" fill="#222222"/>
<rect x="-178.738" y="559.262" width="1000" height="1" transform="rotate(-45 -178.738 559.262)" fill="#222222"/>
<rect x="-175.203" y="562.797" width="1000" height="1" transform="rotate(-45 -175.203 562.797)" fill="#222222"/>
<rect x="-171.667" y="566.333" width="1000" height="1" transform="rotate(-45 -171.667 566.333)" fill="#222222"/>
<rect x="-168.131" y="569.869" width="1000" height="1" transform="rotate(-45 -168.131 569.869)" fill="#222222"/>
<rect x="-164.596" y="573.404" width="1000" height="1" transform="rotate(-45 -164.596 573.404)" fill="#222222"/>
<rect x="-161.06" y="576.94" width="1000" height="1" transform="rotate(-45 -161.06 576.94)" fill="#222222"/>
<rect x="-157.525" y="580.475" width="1000" height="1" transform="rotate(-45 -157.525 580.475)" fill="#222222"/>
<rect x="-153.989" y="584.011" width="1000" height="1" transform="rotate(-45 -153.989 584.011)" fill="#222222"/>
<rect x="-150.454" y="587.546" width="1000" height="1" transform="rotate(-45 -150.454 587.546)" fill="#222222"/>
<rect x="-146.918" y="591.082" width="1000" height="1" transform="rotate(-45 -146.918 591.082)" fill="#222222"/>
<rect x="-143.383" y="594.617" width="1000" height="1" transform="rotate(-45 -143.383 594.617)" fill="#222222"/>
<rect x="-139.847" y="598.153" width="1000" height="1" transform="rotate(-45 -139.847 598.153)" fill="#222222"/>
</g>
<path fill-rule="evenodd" clip-rule="evenodd" d="M156.904 209.698C155.977 209.327 154.809 209.543 154.52 210.271C154.23 210.999 154.928 211.964 155.854 212.335C156.43 212.565 157.445 212.382 158.131 212.21C158.504 212.116 158.675 211.688 158.469 211.362C158.09 210.764 157.48 209.929 156.904 209.698Z" fill="#222222"/>
<mask id="mask3" mask-type="alpha" maskUnits="userSpaceOnUse" x="130" y="213" width="5" height="3">
<path fill-rule="evenodd" clip-rule="evenodd" d="M130 213.169H134.332V215.987H130V213.169Z" fill="white"/>
</mask>
<g mask="url(#mask3)">
<path fill-rule="evenodd" clip-rule="evenodd" d="M132.192 215.876C133.267 216.168 134.341 215.872 134.332 215.142C134.323 214.412 133.234 213.524 132.158 213.232C131.69 213.104 131.089 213.191 130.561 213.329C129.969 213.484 129.803 214.252 130.27 214.647C130.868 215.154 131.63 215.722 132.192 215.876Z" fill="#222222"/>
</g>
<path fill-rule="evenodd" clip-rule="evenodd" d="M146.265 216.381C145.338 216.011 144.171 216.228 143.881 216.956C143.591 217.684 144.291 218.648 145.217 219.018C145.697 219.21 146.48 219.115 147.125 218.978C147.687 218.859 147.948 218.202 147.622 217.728C147.248 217.183 146.744 216.573 146.265 216.381Z" fill="#222222"/>
<path fill-rule="evenodd" clip-rule="evenodd" d="M167.76 219.541C168.714 219.833 169.859 219.519 170.087 218.769C170.315 218.019 169.538 217.117 168.584 216.826C168.034 216.657 167.137 216.877 166.476 217.092C166.037 217.235 165.873 217.776 166.158 218.141C166.587 218.689 167.209 219.373 167.76 219.541Z" fill="#222222"/>
<path fill-rule="evenodd" clip-rule="evenodd" d="M215.213 205.087C214.924 207.51 214.366 209.892 213.376 213.722C212.385 217.553 206.586 214.528 204.605 214.528C203.508 214.528 202.791 215.302 202.37 215.993C202.087 216.456 202.409 217.049 202.95 217.043L222.807 218.006C223.362 218 223.627 217.32 223.227 216.935C222.762 216.488 222.111 216.218 221.528 216.13C220.579 215.985 216.534 215.793 215.812 215.027C215.091 214.26 216.781 209.871 217.338 207.8C218.247 203.99 215.502 202.665 215.213 205.087Z" fill="#222222"/>
<path fill-rule="evenodd" clip-rule="evenodd" d="M225.591 207.669C225.123 210.216 224.357 214.207 224.357 214.207C224.357 214.207 223.198 216.937 225.275 217.215C227.116 217.46 231.162 216.328 232.587 218.327C232.874 218.731 232.624 219.297 232.136 219.365C229.175 219.781 225.145 220.823 221.042 221.273C216.413 221.781 211.74 221.748 209.075 222.091C208.57 222.155 208.16 221.677 208.322 221.192C208.719 219.999 209.76 218.287 212.434 218.734C216.448 219.405 220.295 219.942 221.264 215.613C222.234 211.283 222.792 209.357 223.204 206.517C223.375 205.342 226.155 204.596 225.591 207.669Z" fill="#222222"/>
<path fill-rule="evenodd" clip-rule="evenodd" d="M211.916 141.049C223.076 186.933 251.45 156.072 264.153 207.316C223.076 220.602 191.687 204.121 191.687 182.016C191.687 165.456 198.059 153.282 193.107 148.392C191.015 146.326 186.397 145.942 186.397 138.725C192.222 127.074 207.653 126.359 211.916 141.049Z" fill="#00AA63"/>
<path fill-rule="evenodd" clip-rule="evenodd" d="M211.916 141.049C223.076 186.933 251.45 156.072 264.153 207.316C223.076 220.602 191.687 204.121 191.687 182.016C191.687 165.456 198.059 153.282 193.107 148.392C191.015 146.326 186.397 145.942 186.397 138.725C192.222 127.074 207.653 126.359 211.916 141.049Z" stroke="#222222" stroke-linejoin="round"/>
<path fill-rule="evenodd" clip-rule="evenodd" d="M190.929 137.753C190.929 137.753 188.301 144.728 192.065 147.162C192.794 147.633 192.72 148.085 192.579 148.392C190.384 146.407 183.96 143.956 176.307 147.039C179.155 143.945 186.602 137.35 190.929 137.753Z" fill="#222222"/>
<path fill-rule="evenodd" clip-rule="evenodd" d="M194.114 137.63C194.114 139.225 195.403 140.276 196.992 140.276C198.58 140.276 199.868 139.225 199.868 137.63C199.868 136.036 198.58 134.744 196.992 134.744C195.403 134.744 194.114 136.036 194.114 137.63Z" fill="#222222"/>
<path fill-rule="evenodd" clip-rule="evenodd" d="M196.618 136.01C197.463 135.717 198.379 136.197 198.675 137.037C198.96 137.842 198.468 138.726 197.666 139.012C196.93 139.276 197.217 138.876 197.329 138.295C197.4 137.932 197.288 137.556 197.037 137.284C196.67 136.886 196.118 136.184 196.618 136.01Z" fill="white"/>
<path fill-rule="evenodd" clip-rule="evenodd" d="M188.29 143.259C183.753 146.487 182.218 143.186 175.86 147.196C175.799 147.105 175.747 146.95 175.841 146.765C179.847 138.894 182.164 143.25 188.076 136.172C188.076 136.172 189.914 135.722 190.366 137.628C190.366 137.628 187.415 141.995 188.29 143.259Z" fill="white"/>
<path fill-rule="evenodd" clip-rule="evenodd" d="M188.29 143.259C183.753 146.487 182.218 143.186 175.86 147.196C175.799 147.105 175.747 146.95 175.841 146.765C179.847 138.894 182.164 143.25 188.076 136.172C188.076 136.172 189.914 135.722 190.366 137.628C190.366 137.628 187.415 141.995 188.29 143.259Z" stroke="#222222" stroke-linecap="round" stroke-linejoin="round"/>
<path fill-rule="evenodd" clip-rule="evenodd" d="M247.973 187.226C248.658 186.255 249.562 185.691 250.647 185.552C250.768 185.534 250.885 185.522 250.975 185.521C253.841 185.26 256.202 186.554 260.495 205.655C260.627 206.242 260.808 206.966 261.015 207.787C262.516 213.752 265.027 223.736 260.211 225.607C259.894 225.727 259.584 225.805 259.269 225.845C258.795 225.91 258.324 225.881 257.855 225.761C255.72 225.212 253.649 222.739 251.683 218.379C249.863 214.342 248.438 209.287 247.712 205.902C247.008 202.606 244.942 191.521 247.973 187.226Z" fill="#222222"/>
<path fill-rule="evenodd" clip-rule="evenodd" d="M259.023 206.611C262.702 211.323 272.144 221.684 276.551 218.733C276.794 218.573 277.001 218.393 277.18 218.203C280.703 214.4 271.902 205.098 269.14 201.63C257.923 187.55 255.381 187.215 253.253 188.501C253.168 188.546 253.088 188.595 253.008 188.65C248.648 191.514 254.996 201.447 259.023 206.611Z" fill="white"/>
<path fill-rule="evenodd" clip-rule="evenodd" d="M259.023 206.61C262.702 211.323 272.144 221.684 276.551 218.733C276.794 218.573 277.001 218.393 277.18 218.203C280.703 214.4 271.902 205.098 269.14 201.63C257.923 187.55 255.381 187.215 253.253 188.501C253.168 188.546 253.088 188.595 253.008 188.65C248.648 191.514 254.996 201.447 259.023 206.61Z" stroke="#222222" stroke-linejoin="round"/>
<path fill-rule="evenodd" clip-rule="evenodd" d="M254.177 210.834C257.479 217.414 266.372 232.211 272.402 229.72C272.735 229.588 273.028 229.421 273.29 229.234C278.458 225.5 270.083 212.137 267.587 207.281C257.448 187.565 254.462 186.544 251.583 187.579C251.47 187.612 251.362 187.653 251.253 187.699C245.3 190.097 250.563 203.624 254.177 210.834Z" fill="#00AA63"/>
<path fill-rule="evenodd" clip-rule="evenodd" d="M254.177 210.834C257.479 217.414 266.372 232.211 272.402 229.72C272.735 229.588 273.028 229.421 273.29 229.234C278.458 225.5 270.083 212.137 267.587 207.281C257.448 187.565 254.462 186.544 251.583 187.579C251.47 187.612 251.362 187.653 251.253 187.699C245.3 190.097 250.563 203.624 254.177 210.834Z" stroke="#222222" stroke-linejoin="round"/>
<path fill-rule="evenodd" clip-rule="evenodd" d="M203.471 163.792C209.567 157.136 234.369 153.154 251.183 167.752C271.82 185.671 271.858 199.352 271.858 199.352C271.858 199.352 238.423 209.761 212.337 194.235C195.521 184.227 196.578 171.317 203.471 163.792Z" fill="white"/>
<path fill-rule="evenodd" clip-rule="evenodd" d="M203.471 163.792C209.567 157.136 234.369 153.154 251.183 167.752C271.82 185.671 271.858 199.352 271.858 199.352C271.858 199.352 238.423 209.761 212.337 194.235C195.521 184.227 196.578 171.317 203.471 163.792Z" stroke="#222222" stroke-linejoin="round"/>
<path fill-rule="evenodd" clip-rule="evenodd" d="M251.133 167.66C265.819 183.124 253.108 206.148 227.467 200.46C249.662 206.058 271.858 199.352 271.858 199.352C271.858 199.352 269.717 182.293 251.133 167.66Z" fill="#222222"/>
<path fill-rule="evenodd" clip-rule="evenodd" d="M143.73 207.518C143.714 207.913 144.082 208.23 144.465 208.136C146.593 207.609 148.13 205.88 146.485 204.603C145.063 203.501 143.835 204.941 143.73 207.518Z" fill="#222222"/>
<path fill-rule="evenodd" clip-rule="evenodd" d="M163.104 205.545C162.935 205.882 163.099 206.3 163.454 206.424C165.806 207.251 168.063 206.72 166.855 204.731C165.837 203.055 164.12 203.532 163.104 205.545Z" fill="#222222"/>
<path fill-rule="evenodd" clip-rule="evenodd" d="M173.763 208.767C174.548 207.726 176.499 205.65 178.788 207.024C178.935 207.112 179.004 207.307 178.94 207.466C178.057 209.686 175.291 209.586 174.032 209.416C173.723 209.373 173.576 209.016 173.763 208.767Z" fill="#222222"/>
<path fill-rule="evenodd" clip-rule="evenodd" d="M180.907 215.889C180.545 215.629 180.601 215.079 181.007 214.896C182.421 214.26 185.089 213.374 184.784 215.892C184.513 218.143 182.143 216.772 180.907 215.889Z" fill="#222222"/>
</svg>
