<svg width="370" height="180" viewBox="0 0 370 180" fill="none" xmlns="http://www.w3.org/2000/svg">
<rect y="54" width="300" height="80" transform="rotate(-10 0 54)" fill="#00AA63"/>
<path d="M98 112L88.5 125.5L108.5 124V94L98 112Z" fill="white"/>
<path d="M366.635 0L370 130L255 67.8957L366.635 0Z" fill="#222222"/>
<ellipse cx="199.5" cy="175" rx="137.5" ry="5" fill="#222222"/>
<path d="M60.4975 148.05V148.55H60.9975H108.047V174V174.5H108.547H134.497H134.997V174V148.55H147.247H147.747V148.05V126.3V125.8H147.247H134.997V66.75V66.25H134.497H102.397H102.122L101.975 66.4826L60.575 131.883L60.4975 132.005V132.15V148.05ZM250.781 148.05V148.55H251.281H298.331V174V174.5H298.831H324.781H325.281V174V148.55H337.531H338.031V148.05V126.3V125.8H337.531H325.281V66.75V66.25H324.781H292.681H292.405L292.258 66.4826L250.858 131.883L250.781 132.005V132.15V148.05ZM88.4279 125.8L104.313 101.677C104.314 101.677 104.314 101.676 104.314 101.676C105.84 99.3876 107.166 96.5799 108.108 94.3576C108.281 93.948 108.442 93.5575 108.589 93.193C108.56 93.4669 108.53 93.7555 108.5 94.0569C108.274 96.3341 108.047 99.3521 108.047 102.3V125.8H88.4279ZM200.019 176.3C215.408 176.3 225.66 169.993 232.037 159.771C238.391 149.586 240.869 135.563 240.869 120.15C240.869 104.737 238.391 90.8252 232.036 80.752C225.657 70.6411 215.404 64.45 200.019 64.45C184.634 64.45 174.382 70.6411 168.003 80.752C161.648 90.8252 159.169 104.737 159.169 120.15C159.169 135.563 161.648 149.586 168.001 159.771C174.378 169.993 184.63 176.3 200.019 176.3ZM200.019 151.3C197.558 151.3 195.551 150.467 193.905 148.955C192.249 147.432 190.94 145.203 189.934 142.388C187.92 136.753 187.169 128.911 187.169 120.15C187.169 111.464 187.92 103.736 189.933 98.1958C190.938 95.4291 192.246 93.2418 193.902 91.7495C195.546 90.267 197.555 89.45 200.019 89.45C202.484 89.45 204.492 90.267 206.137 91.7495C207.792 93.2418 209.1 95.4291 210.106 98.1958C212.119 103.736 212.869 111.464 212.869 120.15C212.869 128.911 212.119 136.753 210.105 142.388C209.099 145.203 207.79 147.432 206.133 148.955C204.488 150.467 202.48 151.3 200.019 151.3ZM278.711 125.8L294.597 101.677C294.597 101.677 294.597 101.677 294.597 101.677C296.123 99.3884 297.449 96.5802 298.391 94.3576C298.565 93.948 298.725 93.5575 298.872 93.193C298.843 93.4669 298.813 93.7555 298.783 94.0569C298.557 96.3341 298.331 99.3521 298.331 102.3V125.8H278.711Z" fill="white" stroke="#222222"/>
<mask id="mask0" mask-type="alpha" maskUnits="userSpaceOnUse" x="158" y="63" width="84" height="114">
<path d="M200.019 175.8C230.469 175.8 240.369 150.9 240.369 120.15C240.369 89.4 230.469 64.95 200.019 64.95C169.569 64.95 159.669 89.4 159.669 120.15C159.669 150.9 169.569 175.8 200.019 175.8ZM200.019 151.8C189.669 151.8 186.669 137.7 186.669 120.15C186.669 102.75 189.669 88.95 200.019 88.95C210.369 88.95 213.369 102.75 213.369 120.15C213.369 137.7 210.369 151.8 200.019 151.8Z" fill="#222222"/>
<path d="M200.019 176.8C215.572 176.8 225.989 170.411 232.462 160.036C238.887 149.735 241.369 135.601 241.369 120.15H239.369C239.369 135.449 236.901 149.14 230.765 158.977C224.675 168.739 214.916 174.8 200.019 174.8V176.8ZM241.369 120.15C241.369 104.699 238.888 90.6754 232.459 80.4852C225.982 70.2196 215.565 63.95 200.019 63.95V65.95C214.924 65.95 224.681 71.9054 230.767 81.5523C236.901 91.2746 239.369 104.851 239.369 120.15H241.369ZM200.019 63.95C184.474 63.95 174.056 70.2196 167.58 80.4852C161.151 90.6754 158.669 104.699 158.669 120.15H160.669C160.669 104.851 163.138 91.2746 169.271 81.5523C175.357 71.9054 185.115 65.95 200.019 65.95V63.95ZM158.669 120.15C158.669 135.601 161.151 149.735 167.577 160.036C174.05 170.411 184.466 176.8 200.019 176.8V174.8C185.122 174.8 175.364 168.739 169.274 158.977C163.137 149.14 160.669 135.449 160.669 120.15H158.669ZM200.019 150.8C197.685 150.8 195.797 150.014 194.244 148.586C192.668 147.138 191.395 144.989 190.405 142.22C188.421 136.668 187.669 128.897 187.669 120.15H185.669C185.669 128.953 186.418 137.007 188.521 142.893C189.575 145.842 190.993 148.315 192.89 150.059C194.81 151.823 197.179 152.8 200.019 152.8V150.8ZM187.669 120.15C187.669 111.478 188.421 103.822 190.403 98.3665C191.392 95.6457 192.663 93.5398 194.237 92.1209C195.789 90.7214 197.678 89.95 200.019 89.95V87.95C197.185 87.95 194.818 88.9036 192.897 90.6354C190.998 92.3477 189.578 94.7793 188.523 97.6835C186.418 103.478 185.669 111.422 185.669 120.15H187.669ZM200.019 89.95C202.36 89.95 204.25 90.7214 205.802 92.1209C207.376 93.5398 208.647 95.6457 209.636 98.3665C211.618 103.822 212.369 111.478 212.369 120.15H214.369C214.369 111.422 213.621 103.478 211.515 97.6835C210.46 94.7793 209.041 92.3477 207.141 90.6354C205.22 88.9036 202.853 87.95 200.019 87.95V89.95ZM212.369 120.15C212.369 128.897 211.618 136.668 209.634 142.22C208.644 144.989 207.371 147.138 205.795 148.586C204.241 150.014 202.354 150.8 200.019 150.8V152.8C202.86 152.8 205.229 151.823 207.148 150.059C209.046 148.315 210.463 145.842 211.517 142.893C213.621 137.007 214.369 128.953 214.369 120.15H212.369Z" fill="#20A052"/>
</mask>
<g mask="url(#mask0)">
<rect x="-266" y="360.107" width="1000" height="1" transform="rotate(-45 -266 360.107)" fill="#222222"/>
<rect x="-262.464" y="363.642" width="1000" height="1" transform="rotate(-45 -262.464 363.642)" fill="#222222"/>
<rect x="-258.929" y="367.178" width="1000" height="1" transform="rotate(-45 -258.929 367.178)" fill="#222222"/>
<rect x="-255.393" y="370.713" width="1000" height="1" transform="rotate(-45 -255.393 370.713)" fill="#222222"/>
<rect x="-251.858" y="374.249" width="1000" height="1" transform="rotate(-45 -251.858 374.249)" fill="#222222"/>
<rect x="-248.322" y="377.784" width="1000" height="1" transform="rotate(-45 -248.322 377.784)" fill="#222222"/>
<rect x="-244.787" y="381.32" width="1000" height="1" transform="rotate(-45 -244.787 381.32)" fill="#222222"/>
<rect x="-241.251" y="384.856" width="1000" height="1" transform="rotate(-45 -241.251 384.856)" fill="#222222"/>
<rect x="-237.716" y="388.391" width="1000" height="1" transform="rotate(-45 -237.716 388.391)" fill="#222222"/>
<rect x="-234.18" y="391.927" width="1000" height="1" transform="rotate(-45 -234.18 391.927)" fill="#222222"/>
<rect x="-230.645" y="395.462" width="1000" height="1" transform="rotate(-45 -230.645 395.462)" fill="#222222"/>
<rect x="-227.109" y="398.998" width="1000" height="1" transform="rotate(-45 -227.109 398.998)" fill="#222222"/>
<rect x="-223.574" y="402.533" width="1000" height="1" transform="rotate(-45 -223.574 402.533)" fill="#222222"/>
<rect x="-220.038" y="406.069" width="1000" height="1" transform="rotate(-45 -220.038 406.069)" fill="#222222"/>
<rect x="-216.503" y="409.604" width="1000" height="1" transform="rotate(-45 -216.503 409.604)" fill="#222222"/>
<rect x="-212.967" y="413.14" width="1000" height="1" transform="rotate(-45 -212.967 413.14)" fill="#222222"/>
<rect x="-208.724" y="417.382" width="1000" height="1" transform="rotate(-45 -208.724 417.382)" fill="#222222"/>
<rect x="-205.189" y="420.918" width="1000" height="1" transform="rotate(-45 -205.189 420.918)" fill="#222222"/>
<rect x="-201.653" y="424.453" width="1000" height="1" transform="rotate(-45 -201.653 424.453)" fill="#222222"/>
<rect x="-198.118" y="427.989" width="1000" height="1" transform="rotate(-45 -198.118 427.989)" fill="#222222"/>
<rect x="-194.582" y="431.525" width="1000" height="1" transform="rotate(-45 -194.582 431.525)" fill="#222222"/>
<rect x="-191.047" y="435.06" width="1000" height="1" transform="rotate(-45 -191.047 435.06)" fill="#222222"/>
<rect x="-187.511" y="438.596" width="1000" height="1" transform="rotate(-45 -187.511 438.596)" fill="#222222"/>
<rect x="-183.976" y="442.131" width="1000" height="1" transform="rotate(-45 -183.976 442.131)" fill="#222222"/>
<rect x="-180.44" y="445.667" width="1000" height="1" transform="rotate(-45 -180.44 445.667)" fill="#222222"/>
<rect x="-176.905" y="449.202" width="1000" height="1" transform="rotate(-45 -176.905 449.202)" fill="#222222"/>
<rect x="-173.369" y="452.738" width="1000" height="1" transform="rotate(-45 -173.369 452.738)" fill="#222222"/>
<rect x="-169.833" y="456.273" width="1000" height="1" transform="rotate(-45 -169.833 456.273)" fill="#222222"/>
<rect x="-166.298" y="459.809" width="1000" height="1" transform="rotate(-45 -166.298 459.809)" fill="#222222"/>
<rect x="-162.762" y="463.344" width="1000" height="1" transform="rotate(-45 -162.762 463.344)" fill="#222222"/>
<rect x="-159.227" y="466.88" width="1000" height="1" transform="rotate(-45 -159.227 466.88)" fill="#222222"/>
<rect x="-155.691" y="470.415" width="1000" height="1" transform="rotate(-45 -155.691 470.415)" fill="#222222"/>
<rect x="-152.156" y="473.951" width="1000" height="1" transform="rotate(-45 -152.156 473.951)" fill="#222222"/>
<rect x="-148.62" y="477.487" width="1000" height="1" transform="rotate(-45 -148.62 477.487)" fill="#222222"/>
<rect x="-145.085" y="481.022" width="1000" height="1" transform="rotate(-45 -145.085 481.022)" fill="#222222"/>
<rect x="-141.549" y="484.558" width="1000" height="1" transform="rotate(-45 -141.549 484.558)" fill="#222222"/>
<rect x="-138.014" y="488.093" width="1000" height="1" transform="rotate(-45 -138.014 488.093)" fill="#222222"/>
<rect x="-134.478" y="491.629" width="1000" height="1" transform="rotate(-45 -134.478 491.629)" fill="#222222"/>
<rect x="-130.943" y="495.164" width="1000" height="1" transform="rotate(-45 -130.943 495.164)" fill="#222222"/>
<rect x="-127.407" y="498.7" width="1000" height="1" transform="rotate(-45 -127.407 498.7)" fill="#222222"/>
<rect x="-123.872" y="502.235" width="1000" height="1" transform="rotate(-45 -123.872 502.235)" fill="#222222"/>
<rect x="-120.336" y="505.771" width="1000" height="1" transform="rotate(-45 -120.336 505.771)" fill="#222222"/>
<rect x="-116.8" y="509.306" width="1000" height="1" transform="rotate(-45 -116.8 509.306)" fill="#222222"/>
<rect x="-113.265" y="512.842" width="1000" height="1" transform="rotate(-45 -113.265 512.842)" fill="#222222"/>
<rect x="-109.729" y="516.377" width="1000" height="1" transform="rotate(-45 -109.729 516.377)" fill="#222222"/>
<rect x="-106.194" y="519.913" width="1000" height="1" transform="rotate(-45 -106.194 519.913)" fill="#222222"/>
<rect x="-102.658" y="523.448" width="1000" height="1" transform="rotate(-45 -102.658 523.448)" fill="#222222"/>
<rect x="-99.1228" y="526.984" width="1000" height="1" transform="rotate(-45 -99.1228 526.984)" fill="#222222"/>
<rect x="-94.8802" y="531.227" width="1000" height="1" transform="rotate(-45 -94.8802 531.227)" fill="#222222"/>
<rect x="-91.3446" y="534.762" width="1000" height="1" transform="rotate(-45 -91.3446 534.762)" fill="#222222"/>
<rect x="-87.8091" y="538.298" width="1000" height="1" transform="rotate(-45 -87.8091 538.298)" fill="#222222"/>
<rect x="-84.2736" y="541.833" width="1000" height="1" transform="rotate(-45 -84.2736 541.833)" fill="#222222"/>
<rect x="-80.738" y="545.369" width="1000" height="1" transform="rotate(-45 -80.738 545.369)" fill="#222222"/>
<rect x="-77.2025" y="548.904" width="1000" height="1" transform="rotate(-45 -77.2025 548.904)" fill="#222222"/>
<rect x="-73.667" y="552.44" width="1000" height="1" transform="rotate(-45 -73.667 552.44)" fill="#222222"/>
<rect x="-70.1314" y="555.975" width="1000" height="1" transform="rotate(-45 -70.1314 555.975)" fill="#222222"/>
<rect x="-66.5959" y="559.511" width="1000" height="1" transform="rotate(-45 -66.5959 559.511)" fill="#222222"/>
<rect x="-63.0604" y="563.046" width="1000" height="1" transform="rotate(-45 -63.0604 563.046)" fill="#222222"/>
<rect x="-59.5248" y="566.582" width="1000" height="1" transform="rotate(-45 -59.5248 566.582)" fill="#222222"/>
<rect x="-55.9893" y="570.117" width="1000" height="1" transform="rotate(-45 -55.9893 570.117)" fill="#222222"/>
<rect x="-52.4538" y="573.653" width="1000" height="1" transform="rotate(-45 -52.4538 573.653)" fill="#222222"/>
<rect x="-48.9182" y="577.189" width="1000" height="1" transform="rotate(-45 -48.9182 577.189)" fill="#222222"/>
<rect x="-45.3827" y="580.724" width="1000" height="1" transform="rotate(-45 -45.3827 580.724)" fill="#222222"/>
<rect x="-41.8471" y="584.26" width="1000" height="1" transform="rotate(-45 -41.8471 584.26)" fill="#222222"/>
</g>
<rect x="223" y="154" width="13" height="5" fill="white"/>
<path d="M257.165 154.458L210 150.125L216.321 142H226.532L263 146.333L262.028 155L257.165 154.458Z" fill="white"/>
<path d="M211.619 141.389C211.619 141.389 218.186 142.661 226.297 141.683C234.408 140.705 251.404 140.705 258.742 143.345C266.081 145.986 274.193 138.26 266.274 129.654C258.453 121.146 258.26 117.528 260.094 113.909C261.832 110.584 265.019 111.856 263.184 115.767C261.253 120.07 265.985 123.102 269.944 128.285C273.903 133.468 276.8 146.475 260.094 147.746" fill="white"/>
<path d="M211.619 141.389C211.619 141.389 218.186 142.661 226.297 141.683C234.408 140.705 251.404 140.705 258.742 143.345C266.081 145.986 274.193 138.26 266.274 129.654C258.453 121.146 258.26 117.528 260.094 113.909C261.832 110.584 265.019 111.856 263.184 115.767C261.253 120.07 265.985 123.102 269.944 128.285C273.903 133.468 276.8 146.475 260.094 147.746" stroke="#222222" stroke-miterlimit="10" stroke-linecap="round" stroke-linejoin="round"/>
<path d="M223.883 158.406C223.883 158.406 226.683 161.437 229.966 163.784C232.863 165.838 230.16 169.75 228.904 171.803C228.325 171.999 226.394 172.879 226.297 174.053C226.2 175.226 226.394 175.813 230.353 175.813C234.795 175.813 234.795 169.75 235.953 167.207C237.112 164.762 235.181 160.753 235.084 158.406" fill="white"/>
<path d="M223.883 158.406C223.883 158.406 226.683 161.437 229.966 163.784C232.863 165.838 230.16 169.75 228.904 171.803C228.325 171.999 226.394 172.879 226.297 174.053C226.2 175.226 226.394 175.813 230.353 175.813C234.795 175.813 234.795 169.75 235.953 167.207C237.112 164.762 235.181 160.753 235.084 158.406" stroke="#222222" stroke-miterlimit="10" stroke-linecap="round" stroke-linejoin="round"/>
<path d="M256.521 161.242C256.811 166.914 261.156 166.914 261.543 169.554C262.026 172.195 261.639 172.586 261.639 172.586C261.639 172.586 260.287 173.466 260.384 174.639C260.481 175.813 262.412 175.911 264.633 175.617C267.143 175.324 267.047 172.39 265.985 169.847C264.053 163.686 262.605 164.958 264.247 158.014C265.985 150.68 262.122 147.648 262.122 147.648" fill="white"/>
<path d="M256.521 161.242C256.811 166.914 261.156 166.914 261.543 169.554C262.026 172.195 261.639 172.586 261.639 172.586C261.639 172.586 260.287 173.466 260.384 174.639C260.481 175.813 262.412 175.911 264.633 175.617C267.143 175.324 267.047 172.39 265.985 169.847C264.053 163.686 262.605 164.958 264.247 158.014C265.985 150.68 262.122 147.648 262.122 147.648" stroke="#222222" stroke-miterlimit="10" stroke-linecap="round" stroke-linejoin="round"/>
<path d="M203.894 149.702C203.894 149.702 208.143 152.44 209.881 154.396C211.619 156.45 213.551 159.677 215.096 162.415C216.448 164.86 213.744 170.532 211.33 172.977C210.847 173.075 210.171 173.172 209.495 173.564C207.564 174.542 208.046 176.106 209.109 176.595C210.171 177.182 211.619 176.986 213.164 176.889C214.709 176.791 215.385 176.302 216.061 174.933C217.22 172.683 221.759 170.141 223.014 164.175C224.269 158.112 223.979 155.178 225.718 156.352C233.539 160.948 245.706 156.645 245.706 156.645C245.706 156.645 245.32 160.948 248.12 165.251C250.728 169.261 251.886 170.825 250.148 173.564C249.472 173.759 247.831 174.248 247.831 175.715C247.831 177.084 249.472 176.791 252.949 176.791C256.425 176.791 255.749 169.652 254.783 166.033C253.818 162.415 259.129 160.753 259.129 152.929" fill="white"/>
<path d="M203.894 149.702C203.894 149.702 208.143 152.44 209.881 154.396C211.619 156.45 213.551 159.677 215.096 162.415C216.448 164.86 213.744 170.532 211.33 172.977C210.847 173.075 210.171 173.172 209.495 173.564C207.564 174.542 208.046 176.106 209.109 176.595C210.171 177.182 211.619 176.986 213.164 176.889C214.709 176.791 215.385 176.302 216.061 174.933C217.22 172.683 221.759 170.141 223.014 164.175C224.269 158.112 223.979 155.178 225.718 156.352C233.539 160.948 245.706 156.645 245.706 156.645C245.706 156.645 245.32 160.948 248.12 165.251C250.728 169.261 251.886 170.825 250.148 173.564C249.472 173.759 247.831 174.248 247.831 175.715C247.831 177.084 249.472 176.791 252.949 176.791C256.425 176.791 255.749 169.652 254.783 166.033C253.818 162.415 259.129 160.753 259.129 152.929" stroke="#222222" stroke-miterlimit="10" stroke-linecap="round" stroke-linejoin="round"/>
<path d="M217.123 145.106C217.22 143.932 217.123 142.661 216.737 141.389C216.158 139.238 214.13 136.891 214.13 136.891C214.709 133.664 212.682 132.099 212.682 132.099C210.074 133.272 208.336 135.424 208.336 135.424C208.336 135.424 207.081 135.522 206.115 135.717C204.86 136.011 203.798 136.5 202.832 137.086C200.515 135.62 198.004 136.109 198.004 136.109C197.907 139.14 199.645 141.292 199.645 141.292C199.066 142.856 198.873 144.714 199.452 146.475C200.515 150.289 204.377 152.733 208.336 152.831" fill="white"/>
<path d="M217.123 145.106C217.22 143.932 217.123 142.661 216.737 141.389C216.158 139.238 214.13 136.891 214.13 136.891C214.709 133.664 212.682 132.099 212.682 132.099C210.074 133.272 208.336 135.424 208.336 135.424C208.336 135.424 207.081 135.522 206.115 135.717C204.86 136.011 203.798 136.5 202.832 137.086C200.515 135.62 198.004 136.109 198.004 136.109C197.907 139.14 199.645 141.292 199.645 141.292C199.066 142.856 198.873 144.714 199.452 146.475C200.515 150.289 204.377 152.733 208.336 152.831" stroke="#222222" stroke-miterlimit="10" stroke-linecap="round" stroke-linejoin="round"/>
<path d="M209.57 142.748L208.925 143.916L207.926 143.3C208.047 143.247 208.177 143.192 208.315 143.138C208.719 142.978 209.156 142.834 209.57 142.748Z" fill="#A6A6A6" stroke="#222222"/>
<path d="M209.176 144.893C209.984 145.762 210.987 146.118 211.843 146.242C211.616 146.264 211.393 146.249 211.182 146.214C210.833 146.156 210.523 146.041 210.298 145.939C210.186 145.888 210.098 145.841 210.039 145.808C210.01 145.792 209.988 145.779 209.975 145.771L209.961 145.762L209.959 145.761L209.959 145.761L209.959 145.761L209.959 145.761L209.525 145.48L209.259 145.925C208.508 147.182 207.725 147.769 207.057 148.029C207.685 147.523 208.163 146.876 208.514 146.274C208.805 145.777 209.022 145.29 209.176 144.893Z" fill="#A6A6A6" stroke="#222222"/>
<mask id="path-86-inside-1" fill="white">
<path d="M203.991 142.661C204.956 142.367 205.826 142.27 206.695 142.465C206.308 141.585 205.053 141.292 203.798 141.781C202.542 142.27 201.673 143.247 201.673 144.225C202.156 143.541 203.025 142.954 203.991 142.661Z"/>
</mask>
<path d="M203.991 142.661C204.956 142.367 205.826 142.27 206.695 142.465C206.308 141.585 205.053 141.292 203.798 141.781C202.542 142.27 201.673 143.247 201.673 144.225C202.156 143.541 203.025 142.954 203.991 142.661Z" fill="#A6A6A6"/>
<path d="M206.695 142.465L206.475 143.441L208.405 143.875L207.61 142.063L206.695 142.465ZM201.673 144.225H200.673V147.378L202.491 144.802L201.673 144.225ZM204.282 143.617C205.146 143.355 205.83 143.296 206.475 143.441L206.914 141.489C205.821 141.243 204.767 141.38 203.7 141.704L204.282 143.617ZM207.61 142.063C207.262 141.269 206.548 140.812 205.801 140.636C205.057 140.461 204.222 140.542 203.435 140.849L204.161 142.712C204.628 142.53 205.049 142.514 205.343 142.583C205.634 142.651 205.741 142.781 205.779 142.867L207.61 142.063ZM203.435 140.849C201.989 141.412 200.673 142.66 200.673 144.225H202.673C202.673 143.835 203.095 143.127 204.161 142.712L203.435 140.849ZM202.491 144.802C202.82 144.334 203.484 143.86 204.282 143.617L203.7 141.704C202.567 142.048 201.492 142.748 200.856 143.649L202.491 144.802Z" fill="#222222" mask="url(#path-86-inside-1)"/>
<mask id="path-88-inside-2" fill="white">
<path d="M212.102 140.314C213.068 140.216 213.937 140.411 214.709 140.803C214.516 139.825 213.454 139.238 212.199 139.336C210.943 139.433 209.785 140.314 209.591 141.292C210.267 140.705 211.137 140.411 212.102 140.314Z"/>
</mask>
<path d="M212.102 140.314C213.068 140.216 213.937 140.411 214.709 140.803C214.516 139.825 213.454 139.238 212.199 139.336C210.943 139.433 209.785 140.314 209.591 141.292C210.267 140.705 211.137 140.411 212.102 140.314Z" fill="#A6A6A6"/>
<path d="M214.709 140.803L214.258 141.695L216.088 142.622L215.69 140.609L214.709 140.803ZM209.591 141.292L208.61 141.098L208.046 143.958L210.247 142.047L209.591 141.292ZM212.203 141.309C212.964 141.231 213.642 141.383 214.258 141.695L215.161 139.91C214.231 139.44 213.172 139.2 212.001 139.319L212.203 141.309ZM215.69 140.609C215.358 138.927 213.64 138.22 212.121 138.339L212.276 140.333C213.268 140.255 213.674 140.722 213.728 140.996L215.69 140.609ZM212.121 138.339C211.293 138.403 210.509 138.722 209.895 139.185C209.29 139.64 208.768 140.3 208.61 141.098L210.573 141.485C210.608 141.305 210.762 141.036 211.098 140.782C211.426 140.536 211.849 140.366 212.276 140.333L212.121 138.339ZM210.247 142.047C210.72 141.636 211.37 141.393 212.203 141.309L212.001 139.319C210.903 139.43 209.815 139.774 208.936 140.536L210.247 142.047Z" fill="#222222" mask="url(#path-88-inside-2)"/>
<mask id="mask1" mask-type="alpha" maskUnits="userSpaceOnUse" x="88" y="94" width="21" height="32">
<path d="M108.5 126H89L88.5 125.5L108.5 94V126Z" fill="#222222"/>
</mask>
<g mask="url(#mask1)">
<rect x="-140.14" y="-339" width="1000" height="1" transform="rotate(45 -140.14 -339)" fill="#222222"/>
<rect x="-143.676" y="-335.464" width="1000" height="1" transform="rotate(45 -143.676 -335.464)" fill="#222222"/>
<rect x="-147.211" y="-331.929" width="1000" height="1" transform="rotate(45 -147.211 -331.929)" fill="#222222"/>
<rect x="-150.747" y="-328.393" width="1000" height="1" transform="rotate(45 -150.747 -328.393)" fill="#222222"/>
<rect x="-154.282" y="-324.858" width="1000" height="1" transform="rotate(45 -154.282 -324.858)" fill="#222222"/>
<rect x="-157.818" y="-321.322" width="1000" height="1" transform="rotate(45 -157.818 -321.322)" fill="#222222"/>
<rect x="-161.353" y="-317.787" width="1000" height="1" transform="rotate(45 -161.353 -317.787)" fill="#222222"/>
<rect x="-164.889" y="-314.251" width="1000" height="1" transform="rotate(45 -164.889 -314.251)" fill="#222222"/>
<rect x="-168.424" y="-310.716" width="1000" height="1" transform="rotate(45 -168.424 -310.716)" fill="#222222"/>
<rect x="-171.96" y="-307.18" width="1000" height="1" transform="rotate(45 -171.96 -307.18)" fill="#222222"/>
<rect x="-175.495" y="-303.645" width="1000" height="1" transform="rotate(45 -175.495 -303.645)" fill="#222222"/>
<rect x="-179.031" y="-300.109" width="1000" height="1" transform="rotate(45 -179.031 -300.109)" fill="#222222"/>
<rect x="-182.566" y="-296.574" width="1000" height="1" transform="rotate(45 -182.566 -296.574)" fill="#222222"/>
<rect x="-186.102" y="-293.038" width="1000" height="1" transform="rotate(45 -186.102 -293.038)" fill="#222222"/>
<rect x="-189.638" y="-289.503" width="1000" height="1" transform="rotate(45 -189.638 -289.503)" fill="#222222"/>
<rect x="-193.173" y="-285.967" width="1000" height="1" transform="rotate(45 -193.173 -285.967)" fill="#222222"/>
<rect x="-197.416" y="-281.724" width="1000" height="1" transform="rotate(45 -197.416 -281.724)" fill="#222222"/>
<rect x="-200.951" y="-278.189" width="1000" height="1" transform="rotate(45 -200.951 -278.189)" fill="#222222"/>
<rect x="-204.487" y="-274.653" width="1000" height="1" transform="rotate(45 -204.487 -274.653)" fill="#222222"/>
<rect x="-208.022" y="-271.118" width="1000" height="1" transform="rotate(45 -208.022 -271.118)" fill="#222222"/>
<rect x="-211.558" y="-267.582" width="1000" height="1" transform="rotate(45 -211.558 -267.582)" fill="#222222"/>
<rect x="-215.093" y="-264.047" width="1000" height="1" transform="rotate(45 -215.093 -264.047)" fill="#222222"/>
<rect x="-218.629" y="-260.511" width="1000" height="1" transform="rotate(45 -218.629 -260.511)" fill="#222222"/>
<rect x="-222.164" y="-256.976" width="1000" height="1" transform="rotate(45 -222.164 -256.976)" fill="#222222"/>
<rect x="-225.7" y="-253.44" width="1000" height="1" transform="rotate(45 -225.7 -253.44)" fill="#222222"/>
<rect x="-229.236" y="-249.905" width="1000" height="1" transform="rotate(45 -229.236 -249.905)" fill="#222222"/>
<rect x="-232.771" y="-246.369" width="1000" height="1" transform="rotate(45 -232.771 -246.369)" fill="#222222"/>
<rect x="-236.307" y="-242.833" width="1000" height="1" transform="rotate(45 -236.307 -242.833)" fill="#222222"/>
<rect x="-239.842" y="-239.298" width="1000" height="1" transform="rotate(45 -239.842 -239.298)" fill="#222222"/>
<rect x="-243.378" y="-235.762" width="1000" height="1" transform="rotate(45 -243.378 -235.762)" fill="#222222"/>
<rect x="-246.913" y="-232.227" width="1000" height="1" transform="rotate(45 -246.913 -232.227)" fill="#222222"/>
<rect x="-250.449" y="-228.691" width="1000" height="1" transform="rotate(45 -250.449 -228.691)" fill="#222222"/>
<rect x="-253.984" y="-225.156" width="1000" height="1" transform="rotate(45 -253.984 -225.156)" fill="#222222"/>
<rect x="-257.52" y="-221.62" width="1000" height="1" transform="rotate(45 -257.52 -221.62)" fill="#222222"/>
<rect x="-261.055" y="-218.085" width="1000" height="1" transform="rotate(45 -261.055 -218.085)" fill="#222222"/>
<rect x="-264.591" y="-214.549" width="1000" height="1" transform="rotate(45 -264.591 -214.549)" fill="#222222"/>
<rect x="-268.126" y="-211.014" width="1000" height="1" transform="rotate(45 -268.126 -211.014)" fill="#222222"/>
<rect x="-271.662" y="-207.478" width="1000" height="1" transform="rotate(45 -271.662 -207.478)" fill="#222222"/>
<rect x="-275.197" y="-203.943" width="1000" height="1" transform="rotate(45 -275.197 -203.943)" fill="#222222"/>
<rect x="-278.733" y="-200.407" width="1000" height="1" transform="rotate(45 -278.733 -200.407)" fill="#222222"/>
<rect x="-282.269" y="-196.872" width="1000" height="1" transform="rotate(45 -282.269 -196.872)" fill="#222222"/>
<rect x="-285.804" y="-193.336" width="1000" height="1" transform="rotate(45 -285.804 -193.336)" fill="#222222"/>
<rect x="-289.34" y="-189.8" width="1000" height="1" transform="rotate(45 -289.34 -189.8)" fill="#222222"/>
<rect x="-292.875" y="-186.265" width="1000" height="1" transform="rotate(45 -292.875 -186.265)" fill="#222222"/>
<rect x="-296.411" y="-182.729" width="1000" height="1" transform="rotate(45 -296.411 -182.729)" fill="#222222"/>
<rect x="-299.946" y="-179.194" width="1000" height="1" transform="rotate(45 -299.946 -179.194)" fill="#222222"/>
<rect x="-303.482" y="-175.658" width="1000" height="1" transform="rotate(45 -303.482 -175.658)" fill="#222222"/>
<rect x="-307.017" y="-172.123" width="1000" height="1" transform="rotate(45 -307.017 -172.123)" fill="#222222"/>
<rect x="-311.26" y="-167.88" width="1000" height="1" transform="rotate(45 -311.26 -167.88)" fill="#222222"/>
<rect x="-314.795" y="-164.345" width="1000" height="1" transform="rotate(45 -314.795 -164.345)" fill="#222222"/>
<rect x="-318.331" y="-160.809" width="1000" height="1" transform="rotate(45 -318.331 -160.809)" fill="#222222"/>
<rect x="-321.866" y="-157.274" width="1000" height="1" transform="rotate(45 -321.866 -157.274)" fill="#222222"/>
<rect x="-325.402" y="-153.738" width="1000" height="1" transform="rotate(45 -325.402 -153.738)" fill="#222222"/>
<rect x="-328.938" y="-150.202" width="1000" height="1" transform="rotate(45 -328.938 -150.202)" fill="#222222"/>
<rect x="-332.473" y="-146.667" width="1000" height="1" transform="rotate(45 -332.473 -146.667)" fill="#222222"/>
<rect x="-336.009" y="-143.131" width="1000" height="1" transform="rotate(45 -336.009 -143.131)" fill="#222222"/>
<rect x="-339.544" y="-139.596" width="1000" height="1" transform="rotate(45 -339.544 -139.596)" fill="#222222"/>
<rect x="-343.08" y="-136.06" width="1000" height="1" transform="rotate(45 -343.08 -136.06)" fill="#222222"/>
<rect x="-346.615" y="-132.525" width="1000" height="1" transform="rotate(45 -346.615 -132.525)" fill="#222222"/>
<rect x="-350.151" y="-128.989" width="1000" height="1" transform="rotate(45 -350.151 -128.989)" fill="#222222"/>
<rect x="-353.686" y="-125.454" width="1000" height="1" transform="rotate(45 -353.686 -125.454)" fill="#222222"/>
<rect x="-357.222" y="-121.918" width="1000" height="1" transform="rotate(45 -357.222 -121.918)" fill="#222222"/>
<rect x="-360.757" y="-118.383" width="1000" height="1" transform="rotate(45 -360.757 -118.383)" fill="#222222"/>
<rect x="-364.293" y="-114.847" width="1000" height="1" transform="rotate(45 -364.293 -114.847)" fill="#222222"/>
</g>
<mask id="mask2" mask-type="alpha" maskUnits="userSpaceOnUse" x="278" y="94" width="21" height="32">
<path d="M298.8 126H279.3L278.8 125.5L298.8 94V126Z" fill="#222222"/>
</mask>
<g mask="url(#mask2)">
<rect x="50.1599" y="-339" width="1000" height="1" transform="rotate(45 50.1599 -339)" fill="#222222"/>
<rect x="46.6244" y="-335.464" width="1000" height="1" transform="rotate(45 46.6244 -335.464)" fill="#222222"/>
<rect x="43.0889" y="-331.929" width="1000" height="1" transform="rotate(45 43.0889 -331.929)" fill="#222222"/>
<rect x="39.5533" y="-328.393" width="1000" height="1" transform="rotate(45 39.5533 -328.393)" fill="#222222"/>
<rect x="36.0178" y="-324.858" width="1000" height="1" transform="rotate(45 36.0178 -324.858)" fill="#222222"/>
<rect x="32.4823" y="-321.322" width="1000" height="1" transform="rotate(45 32.4823 -321.322)" fill="#222222"/>
<rect x="28.9467" y="-317.787" width="1000" height="1" transform="rotate(45 28.9467 -317.787)" fill="#222222"/>
<rect x="25.4112" y="-314.251" width="1000" height="1" transform="rotate(45 25.4112 -314.251)" fill="#222222"/>
<rect x="21.8757" y="-310.716" width="1000" height="1" transform="rotate(45 21.8757 -310.716)" fill="#222222"/>
<rect x="18.3401" y="-307.18" width="1000" height="1" transform="rotate(45 18.3401 -307.18)" fill="#222222"/>
<rect x="14.8046" y="-303.645" width="1000" height="1" transform="rotate(45 14.8046 -303.645)" fill="#222222"/>
<rect x="11.2691" y="-300.109" width="1000" height="1" transform="rotate(45 11.2691 -300.109)" fill="#222222"/>
<rect x="7.73355" y="-296.574" width="1000" height="1" transform="rotate(45 7.73355 -296.574)" fill="#222222"/>
<rect x="4.198" y="-293.038" width="1000" height="1" transform="rotate(45 4.198 -293.038)" fill="#222222"/>
<rect x="0.662476" y="-289.503" width="1000" height="1" transform="rotate(45 0.662476 -289.503)" fill="#222222"/>
<rect x="-2.87308" y="-285.967" width="1000" height="1" transform="rotate(45 -2.87308 -285.967)" fill="#222222"/>
<rect x="-7.11569" y="-281.724" width="1000" height="1" transform="rotate(45 -7.11569 -281.724)" fill="#222222"/>
<rect x="-10.6512" y="-278.189" width="1000" height="1" transform="rotate(45 -10.6512 -278.189)" fill="#222222"/>
<rect x="-14.1868" y="-274.653" width="1000" height="1" transform="rotate(45 -14.1868 -274.653)" fill="#222222"/>
<rect x="-17.7223" y="-271.118" width="1000" height="1" transform="rotate(45 -17.7223 -271.118)" fill="#222222"/>
<rect x="-21.2578" y="-267.582" width="1000" height="1" transform="rotate(45 -21.2578 -267.582)" fill="#222222"/>
<rect x="-24.7934" y="-264.047" width="1000" height="1" transform="rotate(45 -24.7934 -264.047)" fill="#222222"/>
<rect x="-28.3289" y="-260.511" width="1000" height="1" transform="rotate(45 -28.3289 -260.511)" fill="#222222"/>
<rect x="-31.8644" y="-256.976" width="1000" height="1" transform="rotate(45 -31.8644 -256.976)" fill="#222222"/>
<rect x="-35.4" y="-253.44" width="1000" height="1" transform="rotate(45 -35.4 -253.44)" fill="#222222"/>
<rect x="-38.9355" y="-249.905" width="1000" height="1" transform="rotate(45 -38.9355 -249.905)" fill="#222222"/>
<rect x="-42.471" y="-246.369" width="1000" height="1" transform="rotate(45 -42.471 -246.369)" fill="#222222"/>
<rect x="-46.0066" y="-242.833" width="1000" height="1" transform="rotate(45 -46.0066 -242.833)" fill="#222222"/>
<rect x="-49.5421" y="-239.298" width="1000" height="1" transform="rotate(45 -49.5421 -239.298)" fill="#222222"/>
<rect x="-53.0776" y="-235.762" width="1000" height="1" transform="rotate(45 -53.0776 -235.762)" fill="#222222"/>
<rect x="-56.6132" y="-232.227" width="1000" height="1" transform="rotate(45 -56.6132 -232.227)" fill="#222222"/>
<rect x="-60.1487" y="-228.691" width="1000" height="1" transform="rotate(45 -60.1487 -228.691)" fill="#222222"/>
<rect x="-63.6842" y="-225.156" width="1000" height="1" transform="rotate(45 -63.6842 -225.156)" fill="#222222"/>
<rect x="-67.2198" y="-221.62" width="1000" height="1" transform="rotate(45 -67.2198 -221.62)" fill="#222222"/>
<rect x="-70.7553" y="-218.085" width="1000" height="1" transform="rotate(45 -70.7553 -218.085)" fill="#222222"/>
<rect x="-74.2908" y="-214.549" width="1000" height="1" transform="rotate(45 -74.2908 -214.549)" fill="#222222"/>
<rect x="-77.8264" y="-211.014" width="1000" height="1" transform="rotate(45 -77.8264 -211.014)" fill="#222222"/>
<rect x="-81.3619" y="-207.478" width="1000" height="1" transform="rotate(45 -81.3619 -207.478)" fill="#222222"/>
<rect x="-84.8974" y="-203.943" width="1000" height="1" transform="rotate(45 -84.8974 -203.943)" fill="#222222"/>
<rect x="-88.433" y="-200.407" width="1000" height="1" transform="rotate(45 -88.433 -200.407)" fill="#222222"/>
<rect x="-91.9685" y="-196.872" width="1000" height="1" transform="rotate(45 -91.9685 -196.872)" fill="#222222"/>
<rect x="-95.504" y="-193.336" width="1000" height="1" transform="rotate(45 -95.504 -193.336)" fill="#222222"/>
<rect x="-99.0396" y="-189.8" width="1000" height="1" transform="rotate(45 -99.0396 -189.8)" fill="#222222"/>
<rect x="-102.575" y="-186.265" width="1000" height="1" transform="rotate(45 -102.575 -186.265)" fill="#222222"/>
<rect x="-106.111" y="-182.729" width="1000" height="1" transform="rotate(45 -106.111 -182.729)" fill="#222222"/>
<rect x="-109.646" y="-179.194" width="1000" height="1" transform="rotate(45 -109.646 -179.194)" fill="#222222"/>
<rect x="-113.182" y="-175.658" width="1000" height="1" transform="rotate(45 -113.182 -175.658)" fill="#222222"/>
<rect x="-116.717" y="-172.123" width="1000" height="1" transform="rotate(45 -116.717 -172.123)" fill="#222222"/>
<rect x="-120.96" y="-167.88" width="1000" height="1" transform="rotate(45 -120.96 -167.88)" fill="#222222"/>
<rect x="-124.495" y="-164.345" width="1000" height="1" transform="rotate(45 -124.495 -164.345)" fill="#222222"/>
<rect x="-128.031" y="-160.809" width="1000" height="1" transform="rotate(45 -128.031 -160.809)" fill="#222222"/>
<rect x="-131.566" y="-157.274" width="1000" height="1" transform="rotate(45 -131.566 -157.274)" fill="#222222"/>
<rect x="-135.102" y="-153.738" width="1000" height="1" transform="rotate(45 -135.102 -153.738)" fill="#222222"/>
<rect x="-138.638" y="-150.202" width="1000" height="1" transform="rotate(45 -138.638 -150.202)" fill="#222222"/>
<rect x="-142.173" y="-146.667" width="1000" height="1" transform="rotate(45 -142.173 -146.667)" fill="#222222"/>
<rect x="-145.709" y="-143.131" width="1000" height="1" transform="rotate(45 -145.709 -143.131)" fill="#222222"/>
<rect x="-149.244" y="-139.596" width="1000" height="1" transform="rotate(45 -149.244 -139.596)" fill="#222222"/>
<rect x="-152.78" y="-136.06" width="1000" height="1" transform="rotate(45 -152.78 -136.06)" fill="#222222"/>
<rect x="-156.315" y="-132.525" width="1000" height="1" transform="rotate(45 -156.315 -132.525)" fill="#222222"/>
<rect x="-159.851" y="-128.989" width="1000" height="1" transform="rotate(45 -159.851 -128.989)" fill="#222222"/>
<rect x="-163.386" y="-125.454" width="1000" height="1" transform="rotate(45 -163.386 -125.454)" fill="#222222"/>
<rect x="-166.922" y="-121.918" width="1000" height="1" transform="rotate(45 -166.922 -121.918)" fill="#222222"/>
<rect x="-170.457" y="-118.383" width="1000" height="1" transform="rotate(45 -170.457 -118.383)" fill="#222222"/>
<rect x="-173.993" y="-114.847" width="1000" height="1" transform="rotate(45 -173.993 -114.847)" fill="#222222"/>
</g>
</svg>
