<svg xmlns="http://www.w3.org/2000/svg" width="23" height="13" viewBox="0 0 23 13">
  <g fill="none" fill-rule="evenodd" transform="translate(0 -6)">
    <path fill="#FFF" d="M11.2532419,18.9454814 L12.627976,18.9454814 C12.627976,18.9454814 13.0431337,18.9001451 13.25541,18.6738645 C13.4505163,18.465879 13.44428,18.0755852 13.44428,18.0755852 C13.44428,18.0755852 13.4173911,16.2480087 14.2733805,15.9788793 C15.1175453,15.7136014 16.2012802,17.7451514 17.3498885,18.526381 C18.2185124,19.1173584 18.8785856,18.9880093 18.8785856,18.9880093 L21.9501532,18.9454814 C21.9501532,18.9454814 23.5568442,18.847266 22.7949659,17.5956618 C22.7326031,17.4934344 22.3511375,16.6698374 20.5111126,14.9777082 C18.5849948,13.2066216 18.8431927,13.4931634 21.1631678,10.4296297 C22.5760484,8.5639386 23.1407956,7.42499318 22.9643172,6.93720615 C22.7961807,6.47244837 21.7569097,6.5952176 21.7569097,6.5952176 L18.2986121,6.61640131 C18.2986121,6.61640131 18.042034,6.5818173 17.8520301,6.69447613 C17.6661567,6.80464747 17.5468576,7.06206165 17.5468576,7.06206165 C17.5468576,7.06206165 16.9992803,8.50568339 16.2695552,9.73361644 C14.7296004,12.324288 14.1137481,12.4614204 13.8620294,12.3002958 C13.2763865,11.9253281 13.4227365,10.7942463 13.4227365,9.99046893 C13.4227365,7.47971777 13.8071178,6.4328894 12.6742216,6.16191443 C12.2983443,6.07204414 12.0214375,6.01258532 11.0599984,6.00287612 C9.82594503,5.99043871 8.78173354,6.00664746 8.19034036,6.29367069 C7.79688814,6.48456481 7.49333546,6.90984385 7.67831794,6.93431746 C7.90695433,6.9644882 8.42448411,7.07273375 8.69888018,7.44264627 C9.05337593,7.92048338 9.04098437,8.99314946 9.04098437,8.99314946 C9.04098437,8.99314946 9.24467567,11.9486783 8.56540771,12.3157021 C8.09930695,12.5674994 7.45980537,12.0534735 6.08685313,9.7030445 C5.38353097,8.4991036 4.85231379,7.16814069 4.85231379,7.16814069 C4.85231379,7.16814069 4.75002269,6.91947281 4.56730795,6.78635245 C4.34571774,6.62506738 4.03609077,6.57395365 4.03609077,6.57395365 L0.749655197,6.5952176 C0.749655197,6.5952176 0.256422593,6.60885863 0.075165685,6.82141791 C-0.0860865508,7.01062696 0.0622881835,7.40148247 0.0622881835,7.40148247 C0.0622881835,7.40148247 2.6350348,13.3651785 5.54842778,16.3705372 C8.2200639,19.1263454 11.2532419,18.9454814 11.2532419,18.9454814"/>
    <rect width="24" height="24"/>
  </g>
</svg>
