<svg width="57" height="27" viewBox="0 0 57 27" fill="none" xmlns="http://www.w3.org/2000/svg">
<path d="M5.37589 5.15024C-0.34407 6.17983 -0.344069 12.7578 0.285127 16.0182C1.31472 21.1089 5.66189 21.3377 6.23389 21.3377C6.40549 21.3377 6.51989 21.3949 6.57709 21.5665C7.72108 23.4541 9.83747 25.0557 11.6107 24.9985C12.869 24.9413 13.0406 23.3397 11.8967 22.9393C11.4391 22.7677 10.0663 22.5389 9.20827 20.9945C9.26547 20.9373 9.32267 20.9373 9.32267 20.9373C11.0387 20.3081 12.2399 19.107 12.869 17.391C13.7842 14.8742 13.7842 12.3574 13.155 9.78341C12.1255 5.32184 8.12148 4.63544 5.37589 5.15024ZM10.6383 16.3042C9.55147 19.9077 5.71909 19.5073 4.2319 18.1918C2.00112 16.3042 2.51591 11.2706 3.25951 9.49741C4.0603 7.72422 5.60469 7.15223 7.32068 7.26663C12.1827 7.72422 11.0387 14.9314 10.6383 16.3042ZM44.3288 19.5073C44.672 19.6789 44.958 19.8505 45.0724 20.2509C45.1868 20.8229 44.9008 21.2805 44.3288 21.3377C43.7569 21.4521 43.1849 21.2805 42.7273 20.9373C42.3841 20.7085 42.0409 20.4225 41.6977 20.1365C40.0389 21.3949 38.2085 21.7381 36.2065 21.1089C33.0033 20.1365 32.7173 15.7322 36.1493 14.4166C37.7509 13.7874 39.2953 13.9018 40.9541 13.9018C40.8969 13.2726 40.8969 12.6434 40.8397 12.0142C40.7825 11.5566 40.3821 11.2706 39.9245 11.1562C38.9521 10.9274 37.9797 11.0418 37.0645 11.2706C36.4925 11.4422 35.8061 11.7854 35.4057 11.7854C34.6621 11.7854 34.2617 10.9846 34.6621 10.3554C34.7193 10.2982 35.2341 9.26861 37.8081 9.03982C42.3269 8.58222 43.2421 10.6986 43.2421 12.1858C43.2993 13.8446 43.2421 15.5034 43.2993 17.2194C43.2993 17.4482 43.2993 17.7342 43.3565 17.963C43.2993 18.7638 43.6997 19.2214 44.3288 19.5073ZM40.8397 18.6494C40.8969 18.5922 40.9541 18.4778 40.9541 18.4206C40.8969 17.677 40.8397 16.5902 40.8969 16.0754C40.8969 15.8466 40.8397 15.7322 40.6109 15.7322C39.7529 15.7322 38.3801 15.5606 37.1789 16.1326C36.4353 16.4758 36.0921 17.105 36.1493 17.9058C36.3209 20.0221 39.2381 19.8505 40.8397 18.6494ZM24.7094 16.1326C24.595 17.7342 25.7962 19.1642 27.3406 19.393C28.4273 19.5646 29.4569 19.3358 30.4293 18.8782C30.6009 18.821 30.8297 18.7066 31.0013 18.6494C31.9737 18.3634 32.5457 19.5073 32.0309 20.1365C31.8021 20.3653 31.5733 20.5941 31.2873 20.7657C28.8277 22.0241 26.3682 21.3949 25.3386 21.0517C21.735 19.6789 21.8494 14.7598 22.7646 12.3574C24.2518 8.52502 28.6561 8.41062 30.7153 10.1266C32.3169 11.4994 32.6029 14.0734 32.4313 15.2746C32.3741 15.8466 32.0309 16.0754 31.4589 16.1326H24.7094ZM24.7094 14.3022H30.2005C30.2005 14.0162 30.1433 13.7874 30.1433 13.5586C30.0289 12.8722 29.8573 12.1286 29.3425 11.6138C28.4845 10.7558 26.7114 10.813 25.7962 11.671C24.9954 12.3574 24.7666 13.2726 24.7094 14.3022ZM55.9404 12.0142C55.9976 12.4718 56.0548 12.9294 56.0548 13.3298C56.0548 15.6178 56.0548 17.9058 56.0548 20.1365C56.0548 21.1089 55.0824 21.6809 54.2244 21.2233C53.7668 20.9945 53.6524 20.5369 53.6524 20.0793V13.5586C53.6524 13.387 53.6524 13.2726 53.6524 13.101C53.5952 11.7854 52.7944 11.099 51.4788 11.1562C50.2776 11.2134 49.248 11.671 48.5044 12.5862C48.39 12.7006 48.3328 12.9294 48.3328 13.0438C48.3328 15.389 48.3328 17.7342 48.3328 20.0221C48.3328 20.8229 48.0468 21.2233 47.4176 21.3377C46.6168 21.5093 45.9876 20.9945 45.9876 20.1937C45.9876 20.1365 45.9876 15.961 45.9876 14.0162C45.9876 11.7282 45.1296 11.2134 45.1296 10.1838C45.1296 9.26861 46.4452 8.86822 47.0172 9.49741C47.3032 9.78341 47.7036 10.527 47.818 10.813C48.3328 10.4698 48.7904 10.0122 49.3052 9.72621C50.7924 8.92542 52.3368 8.86822 53.8812 9.38301C55.0824 9.78341 55.7116 10.7558 55.9404 12.0142ZM18.5318 17.963C18.5318 18.7638 18.7606 19.9077 20.0762 19.6789C20.8198 19.5646 21.2774 19.6789 21.5062 20.1937C21.735 20.9945 21.163 21.5665 20.1906 21.7381C15.9578 22.4245 16.1294 18.4778 16.1294 18.0774C16.1294 14.1306 16.1294 10.1838 16.1294 6.23703C16.1294 4.57824 18.4746 4.57824 18.4746 6.29423L18.5318 17.963Z" fill="#222222"/>
</svg>
