<svg xmlns="http://www.w3.org/2000/svg" width="23" height="13" viewBox="0 0 23 13"><g fill="none" fill-rule="evenodd"><path fill="#FFF" d="M11.253 12.945h1.375s.415-.045.627-.271c.196-.208.19-.598.19-.598s-.028-1.828.828-2.097c.845-.265 1.928 1.766 3.077 2.547.869.591 1.529.462 1.529.462l3.071-.043s1.607-.098.845-1.35c-.062-.102-.444-.925-2.284-2.617-1.926-1.771-1.668-1.485.652-4.548 1.413-1.866 1.978-3.005 1.801-3.493-.168-.465-1.207-.342-1.207-.342l-3.458.021s-.257-.034-.447.078c-.186.11-.305.368-.305.368s-.548 1.444-1.277 2.672c-1.54 2.59-2.156 2.727-2.408 2.566-.586-.375-.44-1.506-.44-2.31 0-2.51.385-3.557-.748-3.828-.376-.09-.653-.15-1.614-.16C9.826-.01 8.782.008 8.19.295c-.393.19-.697.616-.512.64.229.03.746.139 1.02.509.355.477.343 1.55.343 1.55s.204 2.956-.476 3.323c-.466.251-1.105-.263-2.478-2.613-.703-1.204-1.235-2.535-1.235-2.535S4.75.92 4.567.786a1.437 1.437 0 0 0-.53-.212L.75.595S.256.61.075.821c-.161.19-.013.58-.013.58s2.573 5.964 5.486 8.97c2.672 2.755 5.705 2.574 5.705 2.574"/><path d="M0-6h24v24H0z"/></g></svg>