<svg xmlns="http://www.w3.org/2000/svg" width="20" height="18" viewBox="0 0 20 18"><g fill="none" fill-rule="evenodd"><path fill="#FFFFFE" d="M16.803 16.958s-.442 1.13-1.656.587l-7.285-5.717-2.649-1.31L.754 8.98s-.684-.248-.75-.79c-.067-.543.772-.837.772-.837L18.503.237s1.457-.655 1.457.43l-3.157 16.29z"/><path fill="#E6E6E6" d="M7.303 16.775s-.213-.02-.478-.88c-.265-.858-1.612-5.377-1.612-5.377l10.707-6.96s.618-.384.596 0c0 0 .11.068-.22.385-.332.316-8.411 7.75-8.411 7.75"/><path fill="#CDCDCD" d="M10.656 14.02l-2.882 2.69s-.225.174-.471.065l.551-4.995"/><path d="M-1-4h24v24H-1z"/></g></svg>