<svg xmlns="http://www.w3.org/2000/svg" width="19" height="19" viewBox="0 0 19 19"><g fill="none" fill-rule="evenodd"><path fill="#FFF" d="M10.688.068a8.522 8.522 0 0 1 2.825.834c.914.446 1.5.868 2.273 1.635.726.725 1.128 1.274 1.555 2.126.594 1.19.932 2.603.99 4.159.022.53.006.649-.116.8-.231.295-.74.246-.914-.084-.055-.11-.07-.203-.088-.628a10.961 10.961 0 0 0-.168-1.577c-.36-1.975-1.31-3.552-2.828-4.684-1.265-.946-2.572-1.407-4.285-1.507-.58-.033-.68-.055-.81-.155-.245-.19-.257-.64-.022-.849.143-.13.244-.149.74-.133.26.009.64.039.848.063zM3.72.396c.107.036.271.121.366.182.579.382 2.19 2.435 2.718 3.46.302.586.402 1.02.308 1.341-.098.346-.26.528-.981 1.107-.29.234-.561.474-.604.537-.11.158-.198.467-.198.686.003.506.332 1.425.765 2.132.335.549.936 1.253 1.53 1.793.698.637 1.313 1.07 2.008 1.413.893.443 1.439.555 1.838.37.1-.045.207-.106.24-.133.031-.028.266-.313.522-.628.494-.619.606-.719.945-.834.43-.146.868-.106 1.31.118a18.29 18.29 0 0 1 1.54.952c.62.434 1.95 1.514 2.13 1.73.316.388.371.885.158 1.434-.226.58-1.103 1.665-1.716 2.13-.555.418-.948.579-1.466.603-.426.021-.603-.015-1.149-.24-4.279-1.756-7.695-4.377-10.407-7.977C2.16 8.692 1.082 6.742.344 4.718c-.43-1.18-.45-1.692-.097-2.296.152-.255.801-.886 1.274-1.238C2.307.602 2.67.387 2.959.326c.198-.042.542-.01.762.07zm7.177 1.871c1.85.27 3.282 1.126 4.221 2.515.527.782.856 1.701.97 2.687.039.361.039 1.02-.004 1.128a.692.692 0 0 1-.277.3c-.12.061-.372.055-.512-.018-.235-.118-.305-.306-.305-.815 0-.786-.204-1.614-.558-2.257a4.62 4.62 0 0 0-1.7-1.762c-.613-.364-1.518-.634-2.344-.701-.299-.024-.463-.085-.576-.215a.55.55 0 0 1-.046-.686c.159-.246.403-.285 1.131-.176zm.65 2.29c.6.128 1.06.355 1.453.722.506.476.783 1.053.905 1.88.082.54.049.753-.143.929-.18.164-.512.17-.713.015-.147-.11-.192-.224-.226-.537-.04-.415-.113-.707-.238-.977-.268-.573-.74-.87-1.539-.967-.374-.046-.487-.088-.61-.23a.564.564 0 0 1 .172-.85c.115-.058.164-.064.42-.048.159.009.393.036.518.063z"/><path d="M-2-3h24v24H-2z"/></g></svg>