<svg width="13" height="16" viewBox="0 0 13 16" fill="none" xmlns="http://www.w3.org/2000/svg">
<path fill-rule="evenodd" clip-rule="evenodd" d="M1 1C1 0.447715 1.44772 0 2 0H12C12.5523 0 13 0.447715 13 1V15C13 15.5523 12.5523 16 12 16H2C1.44772 16 1 15.5523 1 15C1 14.4477 1.44772 14 2 14H11V2H2C1.44772 2 1 1.55228 1 1Z" fill="#222222"/>
<path d="M6.30708 4.74315C5.91656 4.35263 5.28339 4.35263 4.89287 4.74315C4.50234 5.13367 4.50234 5.76684 4.89287 6.15736L5.73551 7H1C0.447715 7 0 7.44772 0 8C0 8.55228 0.447715 9 1 9H5.58577L4.89287 9.6929C4.50234 10.0834 4.50234 10.7166 4.89287 11.1071C5.28339 11.4976 5.91656 11.4976 6.30708 11.1071L8.71125 8.70295C9.14082 8.27337 9.14082 7.57689 8.71125 7.14731L6.30708 4.74315Z" fill="#222222"/>
</svg>
