<svg width="24" height="24" viewBox="0 0 24 24" fill="none" xmlns="http://www.w3.org/2000/svg">
<circle cx="12" cy="12" r="9" fill="url(#paint0_linear)"/>
<path d="M6.18658 18.8708C5.66931 18.4327 5.20217 17.9372 4.79498 17.3942C7.00266 15.8836 9.67329 15 12.5503 15C15.1041 15 17.4953 15.6962 19.5444 16.9092C19.1731 17.4786 18.7391 18.0034 18.2522 18.4738C16.5636 17.5348 14.6194 17 12.5503 17C10.2052 17 8.02049 17.687 6.18658 18.8708Z" fill="white"/>
<path fill-rule="evenodd" clip-rule="evenodd" d="M16 10C16 12.2091 14.2091 14 12 14C9.79086 14 8 12.2091 8 10C8 7.79086 9.79086 6 12 6C14.2091 6 16 7.79086 16 10ZM14 10C14 11.1046 13.1046 12 12 12C10.8954 12 10 11.1046 10 10C10 8.89543 10.8954 8 12 8C13.1046 8 14 8.89543 14 10Z" fill="white"/>
<defs>
<linearGradient id="paint0_linear" x1="21" y1="3.00001" x2="3" y2="21" gradientUnits="userSpaceOnUse">
<stop stop-color="#4EC3E0"/>
<stop offset="1" stop-color="#008BFF"/>
</linearGradient>
</defs>
</svg>
