<svg width="24" height="24" viewBox="0 0 24 24" fill="none" xmlns="http://www.w3.org/2000/svg">
  <path fill-rule="evenodd" clip-rule="evenodd" d="M11.9997 13.7997C13.9879 13.7997 15.5997 12.188 15.5997 10.1997C15.5997 8.21151 13.9879 6.59973 11.9997 6.59973C10.0115 6.59973 8.39972 8.21151 8.39972 10.1997C8.39972 12.188 10.0115 13.7997 11.9997 13.7997ZM11.9997 11.7997C12.8834 11.7997 13.5997 11.0834 13.5997 10.1997C13.5997 9.31608 12.8834 8.59973 11.9997 8.59973C11.1161 8.59973 10.3997 9.31608 10.3997 10.1997C10.3997 11.0834 11.1161 11.7997 11.9997 11.7997Z" fill="#222222"/>
  <path fill-rule="evenodd" clip-rule="evenodd" d="M19.4096 17.1101C20.4126 15.6585 21 13.8979 21 12C21 7.02944 16.9706 3 12 3C7.02944 3 3 7.02944 3 12C3 16.9706 7.02944 21 12 21C14.3514 21 16.4923 20.0982 18.0955 18.6216C18.0955 18.6216 18.0955 18.6216 18.0955 18.6216C18.5872 18.1687 19.0284 17.6617 19.4096 17.1101C19.4096 17.1101 19.4096 17.1101 19.4096 17.1101ZM17.7344 16.0156C18.5319 14.8788 19 13.4941 19 12C19 8.13401 15.866 5 12 5C8.13401 5 5 8.13401 5 12C5 13.6565 5.5754 15.1786 6.53723 16.3774C8.25536 15.3138 10.2812 14.6999 12.4503 14.6999C14.3602 14.6999 16.159 15.1758 17.7344 16.0156ZM16.2898 17.5319C15.1203 16.9976 13.8201 16.6999 12.4503 16.6999C10.868 16.6999 9.37841 17.0972 8.07596 17.7976C9.19518 18.5566 10.5458 19 12 19C13.6164 19 15.1049 18.4521 16.2898 17.5319Z" fill="#222222"/>
</svg>
