<svg width="62" height="22" viewBox="0 0 62 22" fill="none" xmlns="http://www.w3.org/2000/svg">
<path d="M5.90167 0.165264C-0.390293 1.29782 -0.390293 8.53357 0.301823 12.12C1.43438 17.7198 6.21627 17.9715 6.84546 17.9715C7.03422 17.9715 7.16006 18.0344 7.22298 18.2232C8.48137 20.2995 10.8094 22.0613 12.7599 21.9984C14.1441 21.9354 14.3329 20.1737 13.0745 19.7333C12.5711 19.5445 11.0611 19.2928 10.1173 17.594C10.1802 17.5311 10.2431 17.5311 10.2431 17.5311C12.1307 16.839 13.452 15.5176 14.1441 13.6301C15.1508 10.8616 15.1508 8.09313 14.4587 5.26175C13.3262 0.354022 8.92181 -0.401012 5.90167 0.165264ZM11.6903 12.4346C10.4948 16.3985 6.27919 15.9581 4.64328 14.5109C2.18941 12.4346 2.75569 6.89766 3.57364 4.94715C4.45452 2.99665 6.15335 2.36745 8.04093 2.49329C13.3891 2.99665 12.1307 10.9245 11.6903 12.4346ZM48.7499 15.9581C49.1274 16.1468 49.442 16.3356 49.5679 16.776C49.6937 17.4052 49.3791 17.9086 48.7499 17.9715C48.1207 18.0974 47.4915 17.9086 46.9882 17.5311C46.6107 17.2794 46.2331 16.9648 45.8556 16.6502C44.0309 18.0344 42.0175 18.412 39.8153 17.7198C36.2918 16.6502 35.9772 11.8054 39.7524 10.3582C41.5142 9.66613 43.213 9.79196 45.0377 9.79196C44.9747 9.09985 44.9747 8.40773 44.9118 7.71562C44.8489 7.21226 44.4085 6.89766 43.9051 6.77182C42.8355 6.52014 41.7658 6.64598 40.7591 6.89766C40.1299 7.08642 39.3749 7.46394 38.9345 7.46394C38.1165 7.46394 37.6761 6.58306 38.1165 5.89095C38.1794 5.82803 38.7457 4.69548 41.5771 4.4438C46.5477 3.94044 47.5544 6.26847 47.5544 7.90438C47.6174 9.72904 47.5544 11.5537 47.6174 13.4413C47.6174 13.693 47.6174 14.0076 47.6803 14.2593C47.6174 15.1401 48.0578 15.6435 48.7499 15.9581ZM44.9118 15.0143C44.9747 14.9514 45.0377 14.8255 45.0377 14.7626C44.9747 13.9447 44.9118 12.7492 44.9747 12.1829C44.9747 11.9312 44.9118 11.8054 44.6601 11.8054C43.7164 11.8054 42.2063 11.6166 40.885 12.2458C40.067 12.6233 39.6895 13.3155 39.7524 14.1963C39.9412 16.5244 43.1501 16.3356 44.9118 15.0143ZM27.1685 12.2458C27.0427 14.0076 28.364 15.5806 30.0628 15.8322C31.2583 16.021 32.3908 15.7693 33.4605 15.266C33.6492 15.203 33.9009 15.0772 34.0897 15.0143C35.1593 14.6997 35.7885 15.9581 35.2222 16.6502C34.9705 16.9019 34.7188 17.1536 34.4043 17.3423C31.6987 18.7265 28.9932 18.0344 27.8606 17.6569C23.8967 16.1468 24.0225 10.7358 25.0292 8.09313C26.6651 3.87752 31.5099 3.75168 33.7751 5.63927C35.5368 7.14934 35.8514 9.98072 35.6626 11.302C35.5997 11.9312 35.2222 12.1829 34.593 12.2458H27.1685ZM27.1685 10.2324H33.2088C33.2088 9.9178 33.1459 9.66612 33.1459 9.41445C33.02 8.65941 32.8313 7.84146 32.265 7.27518C31.3212 6.33139 29.3707 6.3943 28.364 7.3381C27.4831 8.09313 27.2314 9.09985 27.1685 10.2324ZM61.5226 7.71562C61.5855 8.21897 61.6484 8.72233 61.6484 9.16277C61.6484 11.6796 61.6484 14.1963 61.6484 16.6502C61.6484 17.7198 60.5788 18.349 59.635 17.8457C59.1317 17.594 59.0058 17.0906 59.0058 16.5873V9.41445C59.0058 9.22569 59.0058 9.09985 59.0058 8.91109C58.9429 7.46394 58.062 6.7089 56.6149 6.77182C55.2936 6.83474 54.161 7.3381 53.3431 8.34481C53.2172 8.47065 53.1543 8.72233 53.1543 8.84817C53.1543 11.4279 53.1543 14.0076 53.1543 16.5244C53.1543 17.4052 52.8397 17.8457 52.1476 17.9715C51.2667 18.1603 50.5746 17.594 50.5746 16.7131C50.5746 16.6502 50.5746 12.0571 50.5746 9.9178C50.5746 7.40102 49.6308 6.83474 49.6308 5.70219C49.6308 4.69548 51.0779 4.25504 51.7071 4.94715C52.0217 5.26175 52.4622 6.07971 52.588 6.3943C53.1543 6.01679 53.6576 5.51343 54.2239 5.19883C55.8598 4.31796 57.5587 4.25504 59.2575 4.82131C60.5788 5.26175 61.2709 6.33139 61.5226 7.71562ZM20.3732 14.2593C20.3732 15.1401 20.6249 16.3985 22.072 16.1468C22.89 16.021 23.3933 16.1468 23.645 16.7131C23.8967 17.594 23.2675 18.2232 22.1978 18.4119C17.5418 19.167 17.7306 14.8255 17.7306 14.3851C17.7306 10.0436 17.7306 5.70219 17.7306 1.36074C17.7306 -0.463932 20.3103 -0.463932 20.3103 1.42366L20.3732 14.2593Z" fill="#222222"/>
</svg>
